<svg width="49" height="48" viewBox="0 0 49 48" fill="none" xmlns="http://www.w3.org/2000/svg">
<g filter="url(#filter0_d_0_2932)">
<path d="M43.716 32.1195H35.2379C34.9666 32.1195 34.7453 32.3355 34.7453 32.6003C34.7453 32.8651 34.9666 33.081 35.2379 33.081H43.716C43.9873 33.081 44.2086 32.8651 44.2086 32.6003C44.2086 32.3355 43.9873 32.1195 43.716 32.1195Z" fill="white"/>
<path d="M43.716 38.2136H34.2103C33.939 38.2136 33.7177 38.4296 33.7177 38.6944C33.7177 38.9592 33.939 39.1751 34.2103 39.1751H43.716C43.9873 39.1751 44.2086 38.9592 44.2086 38.6944C44.2086 38.4296 43.9873 38.2136 43.716 38.2136Z" fill="white"/>
<path d="M5.29338 35.5901H12.9592C13.2305 35.5901 13.4518 35.3741 13.4518 35.1093C13.4518 34.8445 13.2305 34.6285 12.9592 34.6285H5.29338C5.02207 34.6285 4.80078 34.8445 4.80078 35.1093C4.80078 35.376 5.02207 35.5901 5.29338 35.5901Z" fill="white"/>
<path fill-rule="evenodd" clip-rule="evenodd" d="M8.63206 0.763111C8.82253 0.671093 9.04959 0.70865 9.19968 0.855133L9.19992 0.855359C9.34809 1.00182 9.38657 1.22529 9.29036 1.41121C8.98441 2.00841 8.83047 2.64504 8.83047 3.30421C8.83047 5.65916 10.8047 7.57658 13.2292 7.57658C13.9085 7.57658 14.5646 7.42447 15.1804 7.12775C15.3708 7.03573 15.5979 7.07329 15.748 7.21977C15.8981 7.36623 15.9346 7.58971 15.8403 7.77375C14.9225 9.57098 13.0752 10.6865 11.0202 10.6865C8.05094 10.6865 5.63608 8.33696 5.63608 5.45052C5.63608 3.45046 6.78482 1.65516 8.63206 0.763111ZM14.1391 8.46266C13.8389 8.51336 13.5368 8.53778 13.229 8.53778L13.2291 8.53794C10.2599 8.53794 7.84504 6.19034 7.84697 3.30391C7.84697 3.00343 7.87198 2.70857 7.92393 2.41748C7.10039 3.20434 6.62126 4.28605 6.62126 5.45041C6.62126 7.80724 8.59549 9.72465 11.02 9.72465C12.2188 9.72465 13.3291 9.26082 14.1391 8.46266Z" fill="white"/>
<path fill-rule="evenodd" clip-rule="evenodd" d="M43.718 24.4144H43.716C43.4447 24.4144 43.2254 24.6285 43.2234 24.8933L43.2119 27.4604L24.9321 1.14842C24.7493 0.883631 24.301 0.883631 24.1162 1.14842L5.84975 27.4417L5.86129 24.7167C5.86322 24.4519 5.64194 24.2341 5.37062 24.2341H5.3687C5.09739 24.2341 4.87803 24.4482 4.8761 24.713L4.85878 29.0135C4.85686 29.2257 4.99925 29.4117 5.20514 29.4755C5.25324 29.4905 5.30135 29.4962 5.35138 29.4962C5.51109 29.4962 5.66503 29.4192 5.75931 29.2858L8.63406 25.1487V29.0173C8.63406 29.2821 8.85535 29.498 9.12666 29.498H20.0983C20.6582 31.2708 22.3573 32.5629 24.3623 32.5629C24.3758 32.5629 24.3873 32.561 24.4008 32.561C24.4066 32.561 24.4143 32.5629 24.42 32.5629C24.4296 32.5629 24.4393 32.5615 24.4489 32.5601C24.4585 32.5587 24.4681 32.5573 24.4778 32.5573C26.4308 32.5084 28.076 31.2352 28.6244 29.498H39.9236C40.195 29.498 40.4162 29.2821 40.4162 29.0173V25.1486L43.291 29.2858C43.4122 29.4605 43.6354 29.5375 43.8413 29.4755C44.0472 29.4135 44.1896 29.2276 44.1896 29.0173L44.2088 24.897C44.2108 24.6303 43.9914 24.4163 43.7182 24.4144L43.718 24.4144ZM24.4722 31.5963C24.4473 31.5981 24.424 31.5997 24.4006 31.5997C23.5463 31.5885 22.8536 30.9124 22.8536 30.0823C22.8536 29.5359 23.6772 28.2776 24.4199 27.3292C25.1626 28.2776 25.9862 29.5358 25.9862 30.0823C25.9862 30.8993 25.3147 31.5659 24.4776 31.596L24.4776 31.596L24.4722 31.5963ZM26.9695 30.0805C26.9695 30.2233 26.9502 30.3585 26.9271 30.4937L26.9271 30.4937C27.4909 29.8928 27.8373 29.0984 27.8334 28.2251C27.8334 26.7847 25.5936 23.7199 24.3583 22.1949C23.1249 23.7199 20.8832 26.7866 20.8832 28.2251C20.8832 29.1716 21.2891 30.028 21.9376 30.642C21.8953 30.4599 21.8664 30.274 21.8664 30.0805C21.8664 28.8636 23.6771 26.6757 24.0389 26.2494C24.2255 26.0297 24.6104 26.0297 24.797 26.2494C25.1607 26.6758 26.9695 28.8636 26.9695 30.0805ZM24.7413 21.1245C24.5546 20.9048 24.1697 20.9048 23.9831 21.1245C23.5655 21.6146 19.9018 25.9864 19.9018 28.2253C19.9018 28.3007 19.9068 28.3751 19.9117 28.4493L19.9117 28.4493C19.9136 28.4786 19.9156 28.5078 19.9172 28.5371H14.9568V25.367C15.5995 24.86 17.7295 23.1022 19.8867 20.4936C21.6377 18.3771 23.637 15.3855 24.5433 11.975C25.4495 15.3873 27.4488 18.3768 29.1998 20.4936C31.3569 23.1021 33.487 24.8598 34.1297 25.367V28.5371H28.8053C28.813 28.4338 28.8207 28.3305 28.8207 28.2253C28.8226 25.9868 25.1589 21.6149 24.7414 21.1245H24.7413ZM35.1126 28.5369H39.4305L39.433 23.7311L24.526 2.27527L9.61906 23.7311V28.5369H13.9697V25.134C13.9697 24.9837 14.0409 24.8429 14.1621 24.7528L14.1625 24.7525C14.2816 24.6614 24.0485 17.1898 24.0485 8.34681C24.0485 8.08201 24.2698 7.86605 24.5411 7.86605C24.8124 7.86605 25.0337 8.08201 25.0337 8.34681C25.0337 17.1869 34.794 24.6562 34.9197 24.7524L34.9202 24.7528C35.0414 24.8448 35.1126 24.9856 35.1126 25.134V28.5369Z" fill="white"/>
<path fill-rule="evenodd" clip-rule="evenodd" d="M32.0108 34.3433C32.0551 34.4635 32.0455 34.5987 31.9877 34.7133L31.9881 34.7133C31.9284 34.8297 31.8264 34.918 31.6994 34.9593L29.8772 35.5471L31.6283 36.0297C31.7553 36.0654 31.863 36.1481 31.9265 36.2607C31.99 36.3734 32.0035 36.5049 31.9669 36.6288L31.3377 38.6983C31.2742 38.9068 31.0799 39.042 30.8663 39.042C30.822 39.042 30.7759 39.0345 30.7316 39.0232L24.4623 37.2936L18.7088 39.1509C18.6587 39.1678 18.6068 39.1753 18.5548 39.1753C18.3509 39.1753 18.1604 39.0514 18.093 38.8523L17.3676 36.811C17.3233 36.6908 17.3329 36.5556 17.3907 36.441C17.4484 36.3246 17.5523 36.2382 17.6774 36.1969L19.1975 35.7067L17.3714 35.2034C17.2444 35.1678 17.1367 35.0851 17.0732 34.9724C17.0097 34.8598 16.9962 34.7283 17.0328 34.6044L17.662 32.5348C17.739 32.2813 18.0083 32.1367 18.2681 32.2081L24.6123 33.9583L30.6658 32.0034C30.9217 31.9207 31.1969 32.0541 31.2854 32.302L32.0108 34.3433ZM18.4684 33.2617L18.1182 34.4091L20.8659 35.1678L22.9441 34.4974L18.4684 33.2617ZM30.8794 36.8221L30.5292 37.9696L26.1304 36.7545L28.2086 36.0841L30.8794 36.8221ZM18.4589 36.9575L18.861 38.0899L30.9164 34.1987L30.5142 33.0663L18.4589 36.9575Z" fill="white"/>
</g>
<defs>
<filter id="filter0_d_0_2932" x="0.800781" y="0.713135" width="47.4081" height="46.4622" filterUnits="userSpaceOnUse" color-interpolation-filters="sRGB">
<feFlood flood-opacity="0" result="BackgroundImageFix"/>
<feColorMatrix in="SourceAlpha" type="matrix" values="0 0 0 0 0 0 0 0 0 0 0 0 0 0 0 0 0 0 127 0" result="hardAlpha"/>
<feOffset dy="4"/>
<feGaussianBlur stdDeviation="2"/>
<feColorMatrix type="matrix" values="0 0 0 0 0 0 0 0 0 0 0 0 0 0 0 0 0 0 0.25 0"/>
<feBlend mode="normal" in2="BackgroundImageFix" result="effect1_dropShadow_0_2932"/>
<feBlend mode="normal" in="SourceGraphic" in2="effect1_dropShadow_0_2932" result="shape"/>
</filter>
</defs>
</svg>
