<svg width="12" height="13" viewBox="0 0 12 13" fill="none" xmlns="http://www.w3.org/2000/svg">
<path fill-rule="evenodd" clip-rule="evenodd" d="M5.852 0.00549316C7.10553 0.00549316 8.3226 0.415335 9.28221 1.15961V1.15958C10.5357 2.13123 11.273 3.51278 11.3622 5.04879C11.4476 6.56527 10.8623 8.04897 9.757 9.11919L6.09303 12.6205C5.9511 12.7567 5.70493 12.7555 5.563 12.6193L1.9508 9.12171C0.842995 8.04906 0.256429 6.56415 0.343095 5.04882C0.431004 3.51287 1.16955 2.13132 2.4218 1.15961C3.38015 0.415335 4.59851 0.00549316 5.852 0.00549316ZM3.39022 5.34446C3.39022 6.65911 4.49423 7.72811 5.852 7.72811C7.20974 7.72811 8.31505 6.65914 8.31379 5.34446C8.31379 4.02982 7.20978 2.96082 5.852 2.96082C4.49426 2.96082 3.39022 4.02979 3.39022 5.34446Z" fill="white"/>
<path d="M5.85201 4.18274C5.19008 4.18274 4.6525 4.70326 4.6525 5.34418C4.6525 5.98509 5.19008 6.50561 5.85201 6.50561C6.51393 6.50561 7.05152 5.98509 7.05152 5.34418C7.05152 4.70326 6.51393 4.18274 5.85201 4.18274Z" fill="white"/>
</svg>
