<svg width="137" height="310" viewBox="0 0 137 310" fill="none" xmlns="http://www.w3.org/2000/svg">
<path fill-rule="evenodd" clip-rule="evenodd" d="M0 -7H137V200H0V-7Z" fill="#4AF6CD"/>
<path d="M27.0689 161.984C27.0689 158.824 27.5289 156.044 28.4489 153.644C29.3689 151.204 30.7489 149.024 32.5889 147.104L38.4689 152.084C36.1889 154.964 35.0489 157.984 35.0489 161.144C35.0489 162.784 35.3689 164.044 36.0089 164.924C36.6089 165.764 37.4689 166.184 38.5889 166.184C39.3889 166.184 40.0489 165.964 40.5689 165.524C41.0889 165.084 41.5889 164.344 42.0689 163.304C42.5489 162.264 43.1489 160.624 43.8689 158.384C45.2289 154.104 46.9489 150.984 49.0289 149.024C51.0689 147.024 53.9089 146.024 57.5489 146.024C60.1889 146.024 62.5289 146.704 64.5689 148.064C66.5689 149.424 68.1289 151.404 69.2489 154.004C70.3689 156.564 70.9289 159.584 70.9289 163.064C70.9289 169.704 68.9089 175.124 64.8689 179.324L58.8089 173.864C61.5289 170.544 62.8889 167.084 62.8889 163.484C62.8889 161.604 62.4889 160.144 61.6889 159.104C60.8489 158.064 59.7489 157.544 58.3889 157.544C57.4289 157.544 56.6489 157.744 56.0489 158.144C55.4089 158.544 54.8489 159.264 54.3689 160.304C53.8489 161.304 53.2889 162.784 52.6889 164.744C51.2089 169.464 49.4289 172.784 47.3489 174.704C45.2689 176.624 42.6489 177.584 39.4889 177.584C37.0089 177.584 34.8289 176.924 32.9489 175.604C31.0689 174.244 29.6289 172.384 28.6289 170.024C27.5889 167.624 27.0689 164.944 27.0689 161.984ZM55.8689 108.579C58.7489 108.579 61.3289 109.219 63.6089 110.499C65.8889 111.739 67.6889 113.619 69.0089 116.139C70.2889 118.659 70.9289 121.739 70.9289 125.379C70.9289 130.899 69.5889 135.079 66.9089 137.919C64.1889 140.759 60.5089 142.179 55.8689 142.179H28.1489L28.1489 131.079H55.5089C58.0289 131.079 59.8889 130.639 61.0889 129.759C62.2489 128.839 62.8289 127.379 62.8289 125.379C62.8289 123.379 62.2289 121.939 61.0289 121.059C59.8289 120.179 57.9889 119.739 55.5089 119.739H28.1489V108.579H55.8689ZM54.4889 88.5715V91.6315H69.8489V102.731H28.1489L28.1489 88.2715C28.1489 82.3915 29.2089 78.0115 31.3289 75.1315C33.4489 72.2115 36.7089 70.7515 41.1089 70.7515C43.7489 70.7515 45.9489 71.3715 47.7089 72.6115C49.4689 73.8115 51.0489 75.7515 52.4489 78.4315L69.8489 68.0515V80.4115L54.4889 88.5715ZM46.9289 91.6315V87.9115C46.9289 84.0715 44.9889 82.1515 41.1089 82.1515C39.3089 82.1515 37.9889 82.6915 37.1489 83.7715C36.3089 84.8115 35.8889 86.3915 35.8889 88.5115V91.6315H46.9289ZM69.8489 65.5245H28.1489V39.9045L36.0089 41.0445V54.4245H46.0289V42.6645H53.8889V54.4245H69.8489V65.5245Z" fill="white"/>
<path d="M27.0689 287.92C27.0689 282.36 28.8289 277.58 32.3489 273.58L38.0489 279.04C36.9689 280.56 36.1889 281.94 35.7089 283.18C35.1889 284.38 34.9289 285.76 34.9289 287.32C34.9289 290.32 36.0889 292.68 38.4089 294.4C40.7289 296.08 44.2689 296.92 49.0289 296.92C52.5089 296.92 55.2689 296.64 57.3089 296.08C59.3089 295.52 60.7489 294.68 61.6289 293.56C62.5089 292.4 62.9489 290.92 62.9489 289.12C62.9489 287.32 62.5689 285.68 61.8089 284.2H53.2289V288.94L45.6089 290.02V273.46H66.3689C67.8089 275.62 68.9289 278.06 69.7289 280.78C70.5289 283.5 70.9289 286.18 70.9289 288.82C70.9289 301.86 63.6089 308.38 48.9689 308.38C44.4089 308.38 40.4889 307.5 37.2089 305.74C33.8889 303.94 31.3689 301.5 29.6489 298.42C27.9289 295.34 27.0689 291.84 27.0689 287.92ZM27.0689 250.335C27.0689 244.295 28.9889 239.595 32.8289 236.235C36.6689 232.875 42.0489 231.195 48.9689 231.195C53.4889 231.195 57.4089 231.955 60.7289 233.475C64.0089 234.955 66.5289 237.135 68.2889 240.015C70.0489 242.895 70.9289 246.335 70.9289 250.335C70.9289 256.375 69.0089 261.075 65.1689 264.435C61.3289 267.755 55.9289 269.415 48.9689 269.415C44.4489 269.415 40.5489 268.675 37.2689 267.195C33.9889 265.675 31.4689 263.495 29.7089 260.655C27.9489 257.775 27.0689 254.335 27.0689 250.335ZM35.0489 250.335C35.0489 252.935 36.1289 254.855 38.2889 256.095C40.4489 257.295 44.0089 257.895 48.9689 257.895C53.9289 257.895 57.5089 257.275 59.7089 256.035C61.8689 254.795 62.9489 252.895 62.9489 250.335C62.9489 247.695 61.8689 245.775 59.7089 244.575C57.5489 243.375 53.9689 242.775 48.9689 242.775C44.0089 242.775 40.4489 243.375 38.2889 244.575C36.1289 245.775 35.0489 247.695 35.0489 250.335Z" fill="white"/>
<rect x="50.9281" y="210.825" width="22.2865" height="1.02998" transform="rotate(-90 50.9281 210.825)" fill="white"/>
</svg>
