<svg width="26" height="25" viewBox="0 0 26 25" fill="none" xmlns="http://www.w3.org/2000/svg">
<path fill-rule="evenodd" clip-rule="evenodd" d="M24.8545 23.477C25.768 22.5926 25.768 21.1597 24.8545 20.2752L20.0291 15.6029C19.6866 15.2713 19.5975 14.6676 19.8281 14.2563C19.8281 14.2563 19.8122 14.3182 19.9812 13.9578C20.5475 12.7483 20.8626 11.4039 20.8626 9.98871C20.8626 4.67302 16.414 0.365601 10.9241 0.365601C5.43413 0.365601 0.985504 4.67302 0.985504 9.98871C0.985504 15.3044 5.43413 19.6118 10.9241 19.6118C12.3811 19.6118 13.765 19.3089 15.0119 18.7627C15.3887 18.5991 15.3293 18.6124 15.3293 18.6124C15.7609 18.389 16.3798 18.4731 16.7223 18.8047L21.5478 23.477C22.4612 24.3615 23.941 24.3614 24.8545 23.477ZM16.478 9.9887C16.478 12.9583 13.9911 15.3663 10.9241 15.3663C7.85714 15.3663 5.37021 12.9583 5.37021 9.9887C5.37021 7.01907 7.85714 4.61108 10.9241 4.61108C13.9911 4.61108 16.478 7.01907 16.478 9.9887Z" fill="white"/>
</svg>
