<svg width="25" height="52" viewBox="0 0 25 52" fill="none" xmlns="http://www.w3.org/2000/svg">
<g filter="url(#filter0_d_0_2964)">
<path fill-rule="evenodd" clip-rule="evenodd" d="M5.10092 20.7129C5.10092 7.7549 10.6478 0.763857 12.9161 0.763306C15.1848 0.763857 20.7313 7.75446 20.7313 20.7129C20.7313 33.8057 15.8788 42.6818 15.6727 43.0532L15.472 43.4144H10.3602L10.1595 43.0532C9.95354 42.6816 5.10092 33.8057 5.10092 20.7129ZM12.2059 2.58972V2.58964L12.2061 2.5896L12.2059 2.58972ZM12.2059 2.58972V24.1529H13.6269V2.58964C15.4457 4.16155 19.3107 9.88012 19.3107 20.713C19.3107 24.3281 18.9182 27.6266 18.3586 30.5073C17.5362 29.374 16.0247 27.8313 13.27 26.3075C6.57221 22.6013 6.6536 17.5122 6.65906 17.2973H6.65728C7.35533 8.66252 10.5896 3.98816 12.2059 2.58972ZM6.66093 24.32C6.60054 23.5048 6.56501 22.669 6.54548 21.8177C7.5615 23.6458 9.36429 25.7318 12.5647 27.5031C17.1127 30.0202 17.8913 32.51 17.9109 32.5726L17.9111 32.5732C17.563 34.0454 17.1811 35.3817 16.7992 36.5581C16.2006 35.5313 15.1456 34.269 13.2823 33.1941C7.67128 29.9591 6.78506 25.2657 6.66093 24.32ZM13.6268 42.039H14.609L14.6089 42.0387C14.8913 41.4745 15.4632 40.2672 16.1133 38.5302C15.9748 37.9575 15.3105 35.9643 12.5538 34.3752C10.0477 32.929 8.39941 31.2074 7.31062 29.5942C8.47403 36.1935 10.5842 40.7629 11.2236 42.039H12.2058V37.2233H13.6268V42.039Z" fill="white"/>
<path d="M12.9161 0.763306L12.9162 0.638306L12.9161 0.638306L12.9161 0.763306ZM15.6727 43.0532L15.782 43.114L15.7821 43.1139L15.6727 43.0532ZM15.472 43.4144V43.5394H15.5456L15.5813 43.4751L15.472 43.4144ZM10.3602 43.4144L10.251 43.4751L10.2867 43.5394H10.3602V43.4144ZM10.1595 43.0532L10.0502 43.1138L10.0503 43.114L10.1595 43.0532ZM12.2059 2.58964L12.1669 2.47088L12.0809 2.49912V2.58964H12.2059ZM12.2061 2.5896L12.2878 2.68415L12.1671 2.47084L12.2061 2.5896ZM12.2059 24.1529H12.0809V24.2779H12.2059V24.1529ZM13.6269 24.1529V24.2779H13.7519V24.1529H13.6269ZM13.6269 2.58964L13.7086 2.49507L13.5019 2.3164V2.58964H13.6269ZM18.3586 30.5073L18.2575 30.5807L18.4265 30.8136L18.4813 30.5312L18.3586 30.5073ZM13.27 26.3075L13.2095 26.4169L13.2095 26.4169L13.27 26.3075ZM6.65906 17.2973L6.78402 17.3005L6.78727 17.1723H6.65906V17.2973ZM6.65728 17.2973L6.53269 17.2873L6.52177 17.4223H6.65728V17.2973ZM6.54548 21.8177L6.65473 21.757L6.42051 21.8206L6.54548 21.8177ZM6.66093 24.32L6.53607 24.3292L6.53699 24.3362L6.66093 24.32ZM12.5647 27.5031L12.5042 27.6124H12.5042L12.5647 27.5031ZM17.9109 32.5726L17.7916 32.61L17.7916 32.61L17.9109 32.5726ZM17.9111 32.5732L18.0328 32.602L18.0407 32.5686L18.0304 32.5358L17.9111 32.5732ZM16.7992 36.5581L16.6912 36.621L16.8319 36.8623L16.9181 36.5966L16.7992 36.5581ZM13.2823 33.1941L13.3448 33.0858L13.3448 33.0858L13.2823 33.1941ZM14.609 42.039V42.164H14.8278L14.7167 41.9755L14.609 42.039ZM13.6268 42.039H13.5018V42.164H13.6268V42.039ZM14.6089 42.0387L14.4971 41.9827L14.4666 42.0435L14.5012 42.1021L14.6089 42.0387ZM16.1133 38.5302L16.2304 38.574L16.2438 38.5381L16.2348 38.5008L16.1133 38.5302ZM12.5538 34.3752L12.4913 34.4834L12.4914 34.4835L12.5538 34.3752ZM7.31062 29.5942L7.41423 29.5243L7.18752 29.6159L7.31062 29.5942ZM11.2236 42.039L11.1118 42.095L11.1464 42.164H11.2236V42.039ZM12.2058 42.039V42.164H12.3308V42.039H12.2058ZM12.2058 37.2233V37.0983H12.0808V37.2233H12.2058ZM13.6268 37.2233H13.7518V37.0983H13.6268V37.2233ZM12.9161 0.638306C12.6021 0.638382 12.2451 0.758644 11.8658 0.981401C11.485 1.20495 11.0737 1.53643 10.6487 1.97105C9.79853 2.84039 8.88545 4.13081 8.0459 5.82352C6.36636 9.20982 4.97592 14.2163 4.97592 20.7129H5.22592C5.22592 14.2515 6.60889 9.28347 8.26987 5.93461C9.10057 4.25973 9.99952 2.99242 10.8274 2.14584C11.2414 1.7225 11.6355 1.40648 11.9923 1.19699C12.3505 0.986696 12.663 0.888367 12.9162 0.888306L12.9161 0.638306ZM20.8563 20.7129C20.8563 14.2161 19.466 9.2096 17.7865 5.82336C16.9469 4.13068 16.0339 2.84029 15.1837 1.97098C14.7587 1.53638 14.3473 1.20492 13.9666 0.981379C13.5872 0.758633 13.2302 0.638382 12.9162 0.638306L12.9161 0.888306C13.1693 0.888367 13.4819 0.986693 13.84 1.19697C14.1968 1.40645 14.591 1.72246 15.005 2.14578C15.8329 2.99232 16.7318 4.25959 17.5625 5.93444C19.2234 9.28325 20.6063 14.2513 20.6063 20.7129H20.8563ZM15.7821 43.1139C15.9934 42.7328 20.8563 33.8353 20.8563 20.7129H20.6063C20.6063 33.7762 15.7642 42.6307 15.5634 42.9926L15.7821 43.1139ZM15.5813 43.4751L15.782 43.114L15.5635 42.9925L15.3628 43.3537L15.5813 43.4751ZM10.3602 43.5394H15.472V43.2894H10.3602V43.5394ZM10.0503 43.114L10.251 43.4751L10.4695 43.3537L10.2688 42.9925L10.0503 43.114ZM4.97592 20.7129C4.97592 33.8353 9.83894 42.7327 10.0502 43.1138L10.2688 42.9926C10.0681 42.6305 5.22592 33.7762 5.22592 20.7129H4.97592ZM12.0809 2.58964V2.58972H12.3309V2.58964H12.0809ZM12.1671 2.47084L12.1669 2.47088L12.2449 2.70841L12.245 2.70836L12.1671 2.47084ZM12.2877 2.68427L12.2878 2.68415L12.1243 2.49505L12.1242 2.49517L12.2877 2.68427ZM12.3309 24.1529V2.58972H12.0809V24.1529H12.3309ZM13.6269 24.0279H12.2059V24.2779H13.6269V24.0279ZM13.5019 2.58964V24.1529H13.7519V2.58964H13.5019ZM19.4357 20.713C19.4357 9.85308 15.5612 4.09618 13.7086 2.49507L13.5451 2.68422C15.3302 4.22692 19.1857 9.90715 19.1857 20.713H19.4357ZM18.4813 30.5312C19.0422 27.6437 19.4357 24.3371 19.4357 20.713H19.1857C19.1857 24.319 18.7941 27.6095 18.2359 30.4835L18.4813 30.5312ZM13.2095 26.4169C15.9494 27.9325 17.4466 29.4633 18.2575 30.5807L18.4598 30.4339C17.6259 29.2846 16.1 27.7301 13.3305 26.1981L13.2095 26.4169ZM6.5341 17.2942C6.52792 17.5376 6.45725 22.6805 13.2095 26.4169L13.3305 26.1981C6.68717 22.5221 6.77929 17.4868 6.78402 17.3005L6.5341 17.2942ZM6.65728 17.4223H6.65906V17.1723H6.65728V17.4223ZM12.1241 2.49519C10.4774 3.91995 7.23271 8.62801 6.53269 17.2873L6.78188 17.3074C7.47795 8.69702 10.7018 4.05638 12.2877 2.68425L12.1241 2.49519ZM6.42051 21.8206C6.44008 22.6734 6.47569 23.5114 6.53627 24.3292L6.78559 24.3107C6.72539 23.4982 6.68995 22.6646 6.67044 21.8148L6.42051 21.8206ZM12.6252 27.3937C9.44494 25.6335 7.65919 23.5642 6.65473 21.757L6.43622 21.8784C7.46381 23.7273 9.28365 25.83 12.5042 27.6124L12.6252 27.3937ZM18.0302 32.5353C18.0012 32.4425 17.2019 29.9267 12.6252 27.3937L12.5042 27.6124C17.0235 30.1137 17.7814 32.5774 17.7916 32.61L18.0302 32.5353ZM18.0304 32.5358L18.0302 32.5353L17.7916 32.61L17.7918 32.6106L18.0304 32.5358ZM16.9181 36.5966C17.301 35.4171 17.6838 34.0776 18.0328 32.602L17.7895 32.5445C17.4421 34.0132 17.0612 35.3462 16.6803 36.5195L16.9181 36.5966ZM13.2199 33.3024C15.0631 34.3657 16.1029 35.6119 16.6912 36.621L16.9072 36.4951C16.2984 35.4508 15.2281 34.1723 13.3448 33.0858L13.2199 33.3024ZM6.53699 24.3362C6.66399 25.3038 7.56282 30.0409 13.2199 33.3024L13.3448 33.0858C7.77975 29.8774 6.90613 25.2276 6.78487 24.3037L6.53699 24.3362ZM14.609 41.914H13.6268V42.164H14.609V41.914ZM14.5012 42.1021L14.5014 42.1025L14.7167 41.9755L14.7165 41.9752L14.5012 42.1021ZM15.9962 38.4864C15.3479 40.2187 14.7778 41.422 14.4971 41.9827L14.7206 42.0946C15.0048 41.5271 15.5785 40.3157 16.2304 38.574L15.9962 38.4864ZM12.4914 34.4835C15.2123 36.052 15.8595 38.0127 15.9918 38.5596L16.2348 38.5008C16.09 37.9024 15.4087 35.8766 12.6163 34.2669L12.4914 34.4835ZM7.20701 29.6642C8.30583 31.2922 9.9679 33.0272 12.4913 34.4834L12.6163 34.2669C10.1275 32.8307 8.49299 31.1227 7.41423 29.5243L7.20701 29.6642ZM11.3353 41.983C10.6997 40.7144 8.59446 36.1567 7.43372 29.5725L7.18752 29.6159C8.35359 36.2303 10.4687 40.8114 11.1118 42.095L11.3353 41.983ZM12.2058 41.914H11.2236V42.164H12.2058V41.914ZM12.0808 37.2233V42.039H12.3308V37.2233H12.0808ZM13.6268 37.0983H12.2058V37.3483H13.6268V37.0983ZM13.7518 42.039V37.2233H13.5018V42.039H13.7518Z" fill="black"/>
</g>
<defs>
<filter id="filter0_d_0_2964" x="0.975922" y="0.638306" width="23.8804" height="50.9011" filterUnits="userSpaceOnUse" color-interpolation-filters="sRGB">
<feFlood flood-opacity="0" result="BackgroundImageFix"/>
<feColorMatrix in="SourceAlpha" type="matrix" values="0 0 0 0 0 0 0 0 0 0 0 0 0 0 0 0 0 0 127 0" result="hardAlpha"/>
<feOffset dy="4"/>
<feGaussianBlur stdDeviation="2"/>
<feColorMatrix type="matrix" values="0 0 0 0 0 0 0 0 0 0 0 0 0 0 0 0 0 0 0.25 0"/>
<feBlend mode="normal" in2="BackgroundImageFix" result="effect1_dropShadow_0_2964"/>
<feBlend mode="normal" in="SourceGraphic" in2="effect1_dropShadow_0_2964" result="shape"/>
</filter>
</defs>
</svg>
