<svg width="62" height="47" viewBox="0 0 62 47" fill="none" xmlns="http://www.w3.org/2000/svg">
<path fill-rule="evenodd" clip-rule="evenodd" d="M60.5203 43.4947C60.5107 43.5229 60.4987 43.5511 60.4843 43.577L60.4847 43.5766C60.4703 43.6048 60.4558 43.6307 60.427 43.6495C60.4193 43.6613 60.4116 43.6721 60.404 43.6826C60.4004 43.6874 60.3969 43.6922 60.3933 43.697C60.3877 43.7046 60.3821 43.7122 60.3764 43.72C60.3572 43.7435 60.3355 43.7694 60.3139 43.7929C60.2946 43.8117 60.2754 43.8305 60.2537 43.8493C60.2297 43.8728 60.2032 43.894 60.1768 43.9128C60.1551 43.9269 60.1286 43.9433 60.1046 43.9575C60.0923 43.9634 60.0805 43.9698 60.0686 43.9763C60.0585 43.9818 60.0484 43.9873 60.0378 43.9926C60.0314 43.9959 60.0248 43.999 60.018 44.0021C59.9977 44.012 59.9762 44.0196 59.9544 44.0273L59.9544 44.0273C59.9451 44.0306 59.9358 44.0339 59.9265 44.0374C59.9227 44.0388 59.919 44.0403 59.9153 44.0418C59.9128 44.0429 59.9103 44.0439 59.9078 44.045C59.8955 44.0502 59.8832 44.0554 59.8688 44.0585C59.864 44.0597 59.8598 44.0597 59.8555 44.0597C59.8513 44.0597 59.8471 44.0597 59.8423 44.0609C59.7677 44.0797 59.6907 44.0915 59.6113 44.0915C59.5031 44.0915 59.4646 44.1079 59.4646 44.1079C59.4203 44.158 59.3399 44.4087 59.289 44.5675L59.289 44.5676L59.2841 44.5828C59.0964 45.1706 58.7043 46.3931 57.1187 46.3931C55.7625 46.3931 55.0888 45.5132 54.5959 44.8694L54.5924 44.8649C54.1304 44.256 53.9548 44.0914 53.6083 44.0914C53.2618 44.0914 53.0886 44.2559 52.6242 44.8625L52.6208 44.867C52.1278 45.5107 51.4541 46.3906 50.0955 46.3906C48.7392 46.3906 48.0655 45.5108 47.5726 44.867L47.5691 44.8625C47.1071 44.256 46.9315 44.0914 46.585 44.0914C46.241 44.0914 46.0653 44.256 45.6009 44.8649C45.1101 45.5091 44.434 46.3931 43.0746 46.3931C41.716 46.3931 41.0423 45.5132 40.5493 44.8694L40.5459 44.8649C40.0839 44.2584 39.9082 44.0938 39.5618 44.0938C39.2153 44.0938 39.0421 44.2584 38.5777 44.8649C38.0868 45.5091 37.4131 46.3931 36.0513 46.3931C34.6951 46.3931 34.0214 45.5132 33.5285 44.8694L33.525 44.8649C33.063 44.2584 32.8874 44.0938 32.5409 44.0938C32.1969 44.0938 32.0212 44.2584 31.5568 44.8673C31.066 45.5115 30.3899 46.3955 29.0305 46.3955C27.6742 46.3955 27.0006 45.5156 26.5076 44.8718L26.5042 44.8673C26.0422 44.2608 25.8665 44.0962 25.5201 44.0962C25.176 44.0962 25.0003 44.2608 24.536 44.8697C24.0451 45.5139 23.369 46.3979 22.0096 46.3979C21.5789 46.3979 21.1868 46.2262 20.9101 45.9159C20.2388 45.1684 20.3735 43.8941 20.6502 41.877L20.6549 41.842C20.7538 41.1122 20.9044 39.9993 20.8547 39.4578C19.0575 39.8009 16.507 43.3206 15.1838 45.8808C15.0202 46.2005 14.6857 46.398 14.3248 46.398C14.3056 46.398 14.2863 46.398 14.2671 46.3956C13.8845 46.3745 13.5501 46.1324 13.4202 45.7797C13.1988 45.1821 11.3077 39.8621 13.2734 36.9187C14.0096 35.8184 15.203 35.186 16.7285 35.0896C18.0541 35.005 18.6605 34.657 18.776 34.382C18.853 34.1986 18.7303 33.8859 18.4608 33.5873C17.7438 32.7904 16.1413 32.1509 14.3176 32.6352C11.7887 33.3033 8.95448 36.6157 7.99928 40.0199C7.66482 41.2165 7.30388 43.4312 8.67053 44.8018C9.04106 45.1756 9.03144 45.7703 8.65128 46.1324C8.26872 46.4944 7.66243 46.4874 7.2895 46.1136C5.78092 44.602 5.3743 42.2605 6.14182 39.5239C7.13533 35.9786 10.2777 31.754 13.8146 30.8206C16.4491 30.1248 18.7709 31.0839 19.9066 32.3464C20.6934 33.2186 20.9292 34.2225 20.5562 35.1017C20.2315 35.8658 19.3268 36.8109 16.8534 36.9684C15.9319 37.0272 15.2895 37.3493 14.8877 37.9488C14.0769 39.1619 14.2645 41.313 14.6326 43.0292C16.0763 40.7652 18.6099 37.4762 21.2324 37.5561C21.6559 37.5702 22.0385 37.7489 22.3079 38.0616C22.5774 38.3719 22.7097 38.7739 22.7579 39.2723C24.5287 38.1274 27.113 36.9942 32.2138 36.4911C26.6845 14.6037 37.0788 2.28228 37.5503 1.7392C37.5544 1.73528 37.5584 1.73217 37.5622 1.7292C37.5676 1.72506 37.5726 1.72117 37.5768 1.71569C37.6057 1.68513 37.6345 1.65927 37.6658 1.63341C37.6851 1.6146 37.7043 1.59814 37.726 1.58404C37.7555 1.56479 37.7851 1.54869 37.8159 1.53188L37.8367 1.52056C37.8559 1.50881 37.8752 1.49705 37.8968 1.48765C37.9425 1.46884 37.9882 1.45473 38.0364 1.44298C38.0476 1.44141 38.0588 1.43775 38.07 1.4341C38.0756 1.43227 38.0813 1.43044 38.0869 1.42887C38.1518 1.41477 38.2192 1.40771 38.289 1.40771L38.4309 1.41242C38.7148 1.41242 38.9819 1.53232 39.1648 1.7439C39.6363 2.28436 49.9798 14.5428 44.5494 36.3243C58.7495 37.1376 60.4867 42.6742 60.554 42.9163L60.5552 42.9222L60.5564 42.9316C60.5568 42.9348 60.5572 42.9381 60.5577 42.9411C60.558 42.9431 60.5584 42.9451 60.5588 42.9469L60.5733 43.0386C60.5781 43.0715 60.5829 43.1044 60.5829 43.1373C60.5829 43.1467 60.5853 43.1561 60.5853 43.1655C60.5853 43.1844 60.5829 43.2008 60.5805 43.2196C60.5781 43.2525 60.5757 43.2878 60.5685 43.3207C60.5637 43.3489 60.5564 43.3771 60.5492 43.4053C60.5463 43.4146 60.5436 43.424 60.5409 43.4332C60.5348 43.4543 60.5287 43.4751 60.5203 43.4947ZM39.2509 39.2206H41.7387C47.2175 21.7135 42.0635 9.91134 39.2509 5.22583V39.2206ZM37.3261 5.4726V39.2206H34.9802C29.6076 22.0541 34.4918 10.3271 37.3261 5.4726ZM57.4525 44.0484L57.4575 44.033L57.4567 44.0331C57.5698 43.6804 57.7623 43.1021 58.2362 42.6954C57.1707 41.3788 53.8095 38.6752 44.053 38.1838C43.8412 38.9291 43.6127 39.6838 43.3625 40.4502C43.2349 40.8404 42.8644 41.1061 42.4458 41.1061H34.2704C33.8517 41.1061 33.4812 40.8404 33.3537 40.4502C33.1227 39.7355 32.9109 39.0325 32.7112 38.339C26.5252 38.9079 24.3117 40.4243 22.6203 41.7032C22.6128 41.7583 22.6056 41.813 22.5984 41.8683C22.5872 41.9544 22.5758 42.0417 22.5626 42.1334C22.4687 42.8199 22.3244 43.8778 22.3532 44.4421C22.5289 44.341 22.7069 44.1341 22.9957 43.7532L22.9991 43.7488C23.492 43.105 24.1658 42.2251 25.5244 42.2251C26.8807 42.2251 27.5543 43.1049 28.0473 43.7487L28.0507 43.7532C28.5127 44.3598 28.6884 44.5243 29.0348 44.5243C29.3813 44.5243 29.5546 44.3598 30.0189 43.7532L30.0224 43.7488C30.5153 43.105 31.189 42.2251 32.5477 42.2251C33.9039 42.2251 34.5776 43.1049 35.0705 43.7487L35.074 43.7532C35.5384 44.3598 35.714 44.5243 36.0581 44.5243C36.4046 44.5243 36.5778 44.3598 37.0422 43.7532C37.533 43.1091 38.2067 42.2251 39.5685 42.2251C40.9248 42.2251 41.5985 43.1049 42.0914 43.7487L42.0949 43.7532C42.5592 44.3622 42.7349 44.5267 43.0813 44.5267C43.4278 44.5267 43.6011 44.3622 44.0654 43.7557L44.0689 43.7512C44.5618 43.1074 45.2355 42.2275 46.5942 42.2275C47.9504 42.2275 48.6241 43.1073 49.117 43.7511L49.1205 43.7557C49.5825 44.3622 49.7581 44.5267 50.1046 44.5267C50.4511 44.5267 50.6267 44.3621 51.0911 43.7532C51.5819 43.1091 52.2581 42.2251 53.6174 42.2251C54.9761 42.2251 55.6498 43.1049 56.1427 43.7487L56.1462 43.7532C56.6106 44.3598 56.7862 44.5243 57.1303 44.5243C57.2385 44.5243 57.277 44.5079 57.277 44.5079C57.3213 44.4578 57.4016 44.2073 57.4525 44.0484Z" fill="white"/>
<path d="M60.4843 43.577L60.0477 43.3333L60.797 43.9671L60.4843 43.577ZM60.5203 43.4947L60.0604 43.2986L60.0531 43.3157L60.0471 43.3333L60.5203 43.4947ZM60.4847 43.5766L60.9298 43.8044L60.172 43.1865L60.4847 43.5766ZM60.427 43.6495L60.1541 43.2305L60.0656 43.2882L60.008 43.3766L60.427 43.6495ZM60.404 43.6826L60.0003 43.3875L60.0002 43.3876L60.404 43.6826ZM60.3933 43.697L60.795 43.9948L60.7951 43.9947L60.3933 43.697ZM60.3764 43.72L60.7633 44.0368L60.7735 44.0243L60.7829 44.0113L60.3764 43.72ZM60.3139 43.7929L60.6633 44.1505L60.6727 44.1413L60.6817 44.1316L60.3139 43.7929ZM60.2537 43.8493L59.9258 43.4719L59.9148 43.4815L59.9043 43.4917L60.2537 43.8493ZM60.1768 43.9128L60.4497 44.3317L60.4582 44.3262L60.4664 44.3203L60.1768 43.9128ZM60.1046 43.9575L60.324 44.4067L60.3411 44.3984L60.3575 44.3888L60.1046 43.9575ZM60.0686 43.9763L60.3069 44.4159L60.307 44.4158L60.0686 43.9763ZM60.0378 43.9926L59.8125 43.5463L59.8124 43.5463L60.0378 43.9926ZM60.018 44.0021L59.8124 43.5463L59.8054 43.5495L59.7985 43.5529L60.018 44.0021ZM59.9544 44.0273L60.0757 44.5124L60.0987 44.5067L60.1211 44.4987L59.9544 44.0273ZM59.9544 44.0273L59.8331 43.5423L59.8101 43.548L59.7879 43.5559L59.9544 44.0273ZM59.9265 44.0374L60.0986 44.5069L60.1024 44.5054L59.9265 44.0374ZM59.9153 44.0418L60.1067 44.5037L60.1069 44.5037L59.9153 44.0418ZM59.9078 44.045L60.1033 44.5052L60.1035 44.5051L59.9078 44.045ZM59.8688 44.0585L59.7626 43.5698L59.7502 43.5728L59.8688 44.0585ZM59.8423 44.0609L59.7238 43.5751L59.7201 43.5761L59.8423 44.0609ZM59.4646 44.1079L59.268 43.6482L59.1645 43.6924L59.0899 43.7768L59.4646 44.1079ZM59.289 44.5675L58.8129 44.4149L58.8105 44.4225L58.8083 44.4301L59.289 44.5675ZM59.289 44.5676L59.7651 44.7203L59.7676 44.7127L59.7698 44.7049L59.289 44.5676ZM59.2841 44.5828L58.808 44.4301L58.8078 44.4307L59.2841 44.5828ZM54.5959 44.8694L54.1988 45.1733L54.1989 45.1734L54.5959 44.8694ZM54.5924 44.8649L54.194 45.1671L54.1953 45.1687L54.5924 44.8649ZM52.6242 44.8625L52.2272 44.5585L52.2272 44.5586L52.6242 44.8625ZM52.6208 44.867L53.0178 45.171L53.0178 45.1709L52.6208 44.867ZM47.5726 44.867L47.1755 45.1709L47.1756 45.171L47.5726 44.867ZM47.5691 44.8625L47.1714 45.1655L47.1721 45.1664L47.5691 44.8625ZM45.6009 44.8649L45.2034 44.5617L45.2033 44.5619L45.6009 44.8649ZM40.5493 44.8694L40.9463 44.5655L40.9463 44.5654L40.5493 44.8694ZM40.5459 44.8649L40.1481 45.1679L40.1489 45.1689L40.5459 44.8649ZM38.5777 44.8649L38.1807 44.561L38.18 44.5619L38.5777 44.8649ZM33.5285 44.8694L33.1315 45.1734L33.1315 45.1734L33.5285 44.8694ZM33.525 44.8649L33.1273 45.1679L33.128 45.1688L33.525 44.8649ZM31.5568 44.8673L31.1593 44.5641L31.1591 44.5643L31.5568 44.8673ZM26.5076 44.8718L26.1106 45.1757L26.1106 45.1758L26.5076 44.8718ZM26.5042 44.8673L26.1064 45.1703L26.1071 45.1712L26.5042 44.8673ZM24.536 44.8697L24.1384 44.5665L24.1383 44.5667L24.536 44.8697ZM20.9101 45.9159L21.2833 45.5832L21.2821 45.5819L20.9101 45.9159ZM20.6502 41.877L21.1456 41.9449L21.1457 41.944L20.6502 41.877ZM20.6549 41.842L20.1595 41.775L20.1595 41.775L20.6549 41.842ZM20.8547 39.4578L21.3526 39.4121L21.3022 38.8634L20.761 38.9667L20.8547 39.4578ZM15.1838 45.8808L14.7396 45.6512L14.7386 45.653L15.1838 45.8808ZM14.2671 46.3956L14.3277 45.8993L14.3112 45.8973L14.2947 45.8964L14.2671 46.3956ZM13.4202 45.7797L13.8893 45.6068L13.889 45.606L13.4202 45.7797ZM13.2734 36.9187L12.8578 36.6406L12.8576 36.641L13.2734 36.9187ZM16.7285 35.0896L16.76 35.5886L16.7603 35.5886L16.7285 35.0896ZM18.776 34.382L19.237 34.5755L19.237 34.5755L18.776 34.382ZM18.4608 33.5873L18.0891 33.9218L18.0896 33.9223L18.4608 33.5873ZM14.3176 32.6352L14.4453 33.1186L14.4459 33.1185L14.3176 32.6352ZM7.99928 40.0199L7.51787 39.8848L7.51773 39.8853L7.99928 40.0199ZM8.67053 44.8018L9.02564 44.4498L9.02459 44.4487L8.67053 44.8018ZM8.65128 46.1324L8.99497 46.4955L8.99611 46.4945L8.65128 46.1324ZM7.2895 46.1136L7.64347 45.7604L7.6434 45.7604L7.2895 46.1136ZM6.14182 39.5239L6.62324 39.659L6.62327 39.6589L6.14182 39.5239ZM13.8146 30.8206L13.9422 31.3041L13.9423 31.304L13.8146 30.8206ZM19.9066 32.3464L19.5349 32.6808L19.5353 32.6813L19.9066 32.3464ZM20.5562 35.1017L21.0164 35.2973L21.0165 35.297L20.5562 35.1017ZM16.8534 36.9684L16.8216 36.4694L16.8215 36.4694L16.8534 36.9684ZM14.8877 37.9488L14.4723 37.6704L14.472 37.6709L14.8877 37.9488ZM14.6326 43.0292L14.1438 43.1341L14.3992 44.3252L15.0542 43.2981L14.6326 43.0292ZM21.2324 37.5561L21.2491 37.0564L21.2477 37.0564L21.2324 37.5561ZM22.3079 38.0616L21.9292 38.388L21.9304 38.3894L22.3079 38.0616ZM22.7579 39.2723L22.2602 39.3204L22.3392 40.1384L23.0293 39.6922L22.7579 39.2723ZM32.2138 36.4911L32.2629 36.9887L32.8408 36.9317L32.6985 36.3687L32.2138 36.4911ZM37.5503 1.7392L37.2009 1.3816L37.1862 1.39591L37.1728 1.41138L37.5503 1.7392ZM37.5622 1.7292L37.2564 1.33363L37.2563 1.33368L37.5622 1.7292ZM37.5768 1.71569L37.2133 1.37235L37.1958 1.39094L37.1802 1.41123L37.5768 1.71569ZM37.6658 1.63341L37.9844 2.01876L38.0004 2.00554L38.0153 1.99104L37.6658 1.63341ZM37.726 1.58404L37.9989 2.003L37.9989 2.00299L37.726 1.58404ZM37.8159 1.53188L38.0551 1.97097L38.0557 1.97064L37.8159 1.53188ZM37.8367 1.52056L38.0764 1.95933L38.087 1.95355L38.0973 1.94728L37.8367 1.52056ZM37.8968 1.48765L37.7065 1.02516L37.6976 1.02903L37.8968 1.48765ZM38.0364 1.44298L37.9672 0.94778L37.9422 0.95127L37.9177 0.95726L38.0364 1.44298ZM38.07 1.4341L37.9152 0.958673L37.9152 0.958683L38.07 1.4341ZM38.0869 1.42887L37.9808 0.940262L37.9665 0.943359L37.9525 0.947282L38.0869 1.42887ZM38.289 1.40771L38.3055 0.907989L38.2973 0.907715H38.289V1.40771ZM38.4309 1.41242L38.4144 1.91214L38.4227 1.91242H38.4309V1.41242ZM39.1648 1.7439L38.7865 2.07085L38.788 2.07263L39.1648 1.7439ZM44.5494 36.3243L44.0643 36.2034L43.9183 36.789L44.5208 36.8235L44.5494 36.3243ZM60.554 42.9163L61.044 42.8167L61.0405 42.7994L61.0357 42.7823L60.554 42.9163ZM60.5552 42.9222L61.0511 42.858L61.0488 42.8402L61.0452 42.8226L60.5552 42.9222ZM60.5564 42.9316L61.0533 42.875L61.0523 42.8675L60.5564 42.9316ZM60.5577 42.9411L60.0641 43.0212L60.0642 43.0215L60.5577 42.9411ZM60.5588 42.9469L61.0528 42.8691L61.0491 42.8458L61.0432 42.8228L60.5588 42.9469ZM60.5733 43.0386L61.068 42.9662L61.0672 42.9608L60.5733 43.0386ZM60.5805 43.2196L60.0845 43.1562L60.0828 43.1696L60.0818 43.1832L60.5805 43.2196ZM60.5685 43.3207L60.0801 43.2136L60.0776 43.2251L60.0756 43.2366L60.5685 43.3207ZM60.5492 43.4053L61.0261 43.5556L61.0302 43.5425L61.0336 43.5293L60.5492 43.4053ZM60.5409 43.4332L61.021 43.5729L61.021 43.5728L60.5409 43.4332ZM41.7387 39.2206V39.7206H42.1062L42.2159 39.37L41.7387 39.2206ZM39.2509 39.2206H38.7509V39.7206H39.2509V39.2206ZM39.2509 5.22583L39.6796 4.96849L38.7509 3.4214V5.22583H39.2509ZM37.3261 39.2206V39.7206H37.8261V39.2206H37.3261ZM37.3261 5.4726H37.8261V3.62454L36.8943 5.22049L37.3261 5.4726ZM34.9802 39.2206L34.5031 39.37L34.6128 39.7206H34.9802V39.2206ZM57.4575 44.033L57.9336 44.1857L58.1724 43.4412L57.3964 43.5367L57.4575 44.033ZM57.4526 44.0482L56.9765 43.8955L56.9765 43.8956L57.4526 44.0482ZM57.4567 44.0331L56.9806 43.8804L56.7419 44.6249L57.5178 44.5293L57.4567 44.0331ZM58.2362 42.6954L58.5618 43.0748L58.9305 42.7584L58.6249 42.3808L58.2362 42.6954ZM44.053 38.1838L44.0781 37.6845L43.6808 37.6645L43.572 38.0472L44.053 38.1838ZM43.3625 40.4502L43.8377 40.6055L43.8378 40.6053L43.3625 40.4502ZM33.3537 40.4502L32.8779 40.6039L32.8784 40.6055L33.3537 40.4502ZM32.7112 38.339L33.1917 38.2006L33.0773 37.8032L32.6655 37.8411L32.7112 38.339ZM22.6203 41.7032L22.3187 41.3044L22.153 41.4297L22.1249 41.6356L22.6203 41.7032ZM22.5984 41.8683L22.1026 41.8035L22.1026 41.8035L22.5984 41.8683ZM22.5626 42.1334L22.0676 42.0622L22.0672 42.0657L22.5626 42.1334ZM22.3532 44.4421L21.8539 44.4676L21.8956 45.2823L22.6026 44.8754L22.3532 44.4421ZM22.9957 43.7532L22.5988 43.4491L22.5972 43.4512L22.9957 43.7532ZM22.9991 43.7488L23.396 44.0529L23.3961 44.0527L22.9991 43.7488ZM28.0473 43.7487L27.6503 44.0527L27.6504 44.0528L28.0473 43.7487ZM28.0507 43.7532L28.4485 43.4503L28.4476 43.4492L28.0507 43.7532ZM30.0189 43.7532L29.622 43.4492L29.6219 43.4493L30.0189 43.7532ZM30.0224 43.7488L30.4193 44.0528L30.4193 44.0527L30.0224 43.7488ZM35.0705 43.7487L35.4676 43.4448L35.4675 43.4447L35.0705 43.7487ZM35.074 43.7532L34.6769 44.0571L34.677 44.0572L35.074 43.7532ZM37.0422 43.7532L37.4392 44.0572L37.4399 44.0563L37.0422 43.7532ZM42.0914 43.7487L42.4885 43.4449L42.4884 43.4447L42.0914 43.7487ZM42.0949 43.7532L42.4924 43.45L42.492 43.4494L42.0949 43.7532ZM44.0654 43.7557L43.6685 43.4516L43.6684 43.4517L44.0654 43.7557ZM44.0689 43.7512L44.4658 44.0552L44.4659 44.0551L44.0689 43.7512ZM49.117 43.7511L49.5141 43.4473L49.514 43.4471L49.117 43.7511ZM49.1205 43.7557L49.5183 43.4527L49.5176 43.4518L49.1205 43.7557ZM51.0911 43.7532L51.4887 44.0565L51.4888 44.0563L51.0911 43.7532ZM56.1427 43.7487L55.7457 44.0527L55.7458 44.0528L56.1427 43.7487ZM56.1462 43.7532L56.5432 43.4493L56.5431 43.4492L56.1462 43.7532ZM57.277 44.5079L57.4736 44.9676L57.5771 44.9234L57.6517 44.839L57.277 44.5079ZM60.9208 43.8207C60.9525 43.7639 60.9761 43.7073 60.9936 43.6561L60.0471 43.3333L60.0477 43.3333L60.9208 43.8207ZM60.172 43.1865L60.1715 43.1869L60.797 43.9671L60.7975 43.9667L60.172 43.1865ZM60.6999 44.0684C60.8494 43.971 60.9138 43.8358 60.9298 43.8044L60.0396 43.3488C60.0268 43.3738 60.0623 43.2903 60.1541 43.2305L60.6999 44.0684ZM60.8076 43.9776C60.818 43.9635 60.8314 43.9446 60.846 43.9223L60.008 43.3766C60.0072 43.3779 60.0053 43.3807 60.0003 43.3875L60.8076 43.9776ZM60.7951 43.9947C60.7984 43.9901 60.803 43.9839 60.8077 43.9775L60.0002 43.3876C59.9978 43.3909 59.9953 43.3944 59.9915 43.3994L60.7951 43.9947ZM60.7829 44.0113C60.7858 44.0072 60.789 44.0028 60.795 43.9948L59.9916 43.3993C59.9863 43.4064 59.9784 43.4171 59.97 43.4288L60.7829 44.0113ZM60.6817 44.1316C60.7134 44.0972 60.7424 44.0624 60.7633 44.0368L59.9896 43.4032C59.972 43.4247 59.9577 43.4416 59.9461 43.4542L60.6817 44.1316ZM60.5817 44.2268C60.616 44.1969 60.6453 44.1682 60.6633 44.1505L59.9645 43.4352C59.944 43.4552 59.9348 43.4641 59.9258 43.4719L60.5817 44.2268ZM60.4664 44.3203C60.5081 44.2907 60.556 44.2531 60.6032 44.2069L59.9043 43.4917C59.9041 43.4919 59.9026 43.4933 59.8996 43.4958C59.8965 43.4983 59.8924 43.5015 59.8871 43.5053L60.4664 44.3203ZM60.3575 44.3888C60.3888 44.3704 60.4219 44.3498 60.4497 44.3317L59.9038 43.4938C59.8883 43.504 59.8685 43.5163 59.8517 43.5261L60.3575 44.3888ZM60.307 44.4158C60.3133 44.4124 60.3169 44.4104 60.3201 44.4088C60.323 44.4072 60.3241 44.4067 60.324 44.4067L59.8851 43.5082C59.8617 43.5196 59.8407 43.5311 59.8302 43.5368L60.307 44.4158ZM60.2632 44.4389C60.2814 44.4298 60.2979 44.4207 60.3069 44.4159L59.8303 43.5367C59.8191 43.5428 59.8154 43.5448 59.8125 43.5463L60.2632 44.4389ZM60.2236 44.4579C60.2383 44.4513 60.2516 44.4448 60.2632 44.4389L59.8124 43.5463L59.8124 43.5463L60.2236 44.4579ZM60.1211 44.4987C60.1381 44.4927 60.187 44.476 60.2375 44.4514L59.7985 43.5529C59.8052 43.5496 59.8089 43.5482 59.8068 43.5491C59.8058 43.5494 59.804 43.5501 59.8007 43.5513C59.7972 43.5526 59.7935 43.5539 59.7877 43.5559L60.1211 44.4987ZM60.0756 44.5124L60.0757 44.5124L59.8331 43.5423L59.8331 43.5423L60.0756 44.5124ZM60.1024 44.5054C60.1063 44.504 60.1109 44.5023 60.1209 44.4988L59.7879 43.5559C59.7793 43.5589 59.7653 43.5638 59.7506 43.5694L60.1024 44.5054ZM60.1069 44.5037C60.1069 44.5037 60.1067 44.5037 60.1063 44.5039C60.106 44.504 60.1054 44.5042 60.1047 44.5045C60.1034 44.5051 60.1013 44.5059 60.0986 44.5068L59.7545 43.5679C59.7416 43.5726 59.7309 43.577 59.7237 43.58L60.1069 44.5037ZM60.1035 44.5051C60.1048 44.5045 60.1055 44.5042 60.1061 44.504C60.1067 44.5037 60.1068 44.5037 60.1067 44.5037L59.7239 43.5799C59.7189 43.582 59.7143 43.5839 59.7121 43.5848L60.1035 44.5051ZM59.9749 44.5472C60.0418 44.5326 60.0952 44.5086 60.1033 44.5052L59.7123 43.5848C59.7044 43.5881 59.7097 43.5858 59.7171 43.5831C59.7262 43.5797 59.7421 43.5744 59.7627 43.5699L59.9749 44.5472ZM59.8555 44.5597C59.8568 44.5597 59.917 44.5615 59.9873 44.5443L59.7502 43.5728C59.811 43.558 59.8627 43.5597 59.8555 43.5597V44.5597ZM59.9609 44.5466C59.9001 44.5615 59.8484 44.5597 59.8555 44.5597V43.5597C59.8543 43.5597 59.7941 43.558 59.7238 43.5752L59.9609 44.5466ZM59.6113 44.5915C59.7403 44.5915 59.859 44.5723 59.9646 44.5457L59.7201 43.5761C59.6765 43.5871 59.6412 43.5915 59.6113 43.5915V44.5915ZM59.4646 44.1079C59.6611 44.5677 59.6609 44.5678 59.6606 44.5679C59.6606 44.5679 59.6603 44.568 59.6602 44.5681C59.6599 44.5682 59.6596 44.5683 59.6593 44.5684C59.6587 44.5687 59.6581 44.569 59.6575 44.5692C59.6563 44.5697 59.6551 44.5702 59.6539 44.5707C59.6516 44.5716 59.6493 44.5725 59.647 44.5734C59.6425 44.5752 59.6382 44.5768 59.6341 44.5783C59.6259 44.5812 59.6185 44.5835 59.612 44.5854C59.599 44.5892 59.5897 44.5911 59.5848 44.592C59.5752 44.5937 59.5822 44.5915 59.6113 44.5915V43.5915C59.5322 43.5915 59.4659 43.5975 59.4099 43.6074C59.3818 43.6124 59.3561 43.6184 59.3326 43.6253C59.3208 43.6287 59.3095 43.6323 59.2988 43.6362C59.2934 43.6381 59.2881 43.64 59.283 43.642C59.2805 43.643 59.2779 43.644 59.2754 43.6451C59.2742 43.6456 59.2729 43.6461 59.2717 43.6466C59.2711 43.6469 59.2705 43.6471 59.2699 43.6474C59.2696 43.6475 59.2693 43.6476 59.269 43.6478C59.2688 43.6478 59.2686 43.6479 59.2685 43.648C59.2683 43.6481 59.268 43.6482 59.4646 44.1079ZM59.7652 44.7201C59.7912 44.639 59.8213 44.5453 59.8497 44.4664C59.864 44.4266 59.8753 44.3979 59.8832 44.3802C59.8871 44.3712 59.8878 44.3705 59.8852 44.3753C59.8838 44.3779 59.8801 44.3845 59.874 44.3937C59.8685 44.4021 59.857 44.4189 59.8392 44.439L59.0899 43.7768C59.0206 43.8552 58.9804 43.949 58.9681 43.9769C58.9468 44.0252 58.9265 44.0784 58.9089 44.1274C58.8734 44.2261 58.8378 44.3372 58.8129 44.4149L59.7652 44.7201ZM59.7698 44.7049L59.7698 44.7049L58.8083 44.4301L58.8082 44.4302L59.7698 44.7049ZM59.7602 44.7355L59.7651 44.7203L58.8129 44.4149L58.808 44.4301L59.7602 44.7355ZM57.1187 46.8931C58.0627 46.8931 58.6957 46.5194 59.1078 46.0307C59.4991 45.5667 59.6681 45.0239 59.7604 44.7349L58.8078 44.4307C58.7124 44.7295 58.5915 45.0918 58.3434 45.386C58.1162 45.6554 57.7602 45.8931 57.1187 45.8931V46.8931ZM54.1989 45.1734C54.687 45.8109 55.4953 46.8931 57.1187 46.8931V45.8931C56.0296 45.8931 55.4906 45.2155 54.9928 44.5655L54.1989 45.1734ZM54.1953 45.1687L54.1988 45.1733L54.993 44.5656L54.9895 44.5611L54.1953 45.1687ZM53.6083 44.5914C53.6542 44.5914 53.6727 44.5967 53.6804 44.5994C53.6877 44.6019 53.7062 44.6091 53.7426 44.6385C53.8326 44.7114 53.9571 44.8548 54.194 45.1671L54.9907 44.5627C54.7657 44.2661 54.5713 44.0227 54.3715 43.8611C54.133 43.6682 53.89 43.5914 53.6083 43.5914V44.5914ZM53.0212 45.1664C53.2599 44.8546 53.3844 44.7114 53.4748 44.6383C53.5112 44.6089 53.5296 44.6017 53.5367 44.5993C53.5441 44.5967 53.5624 44.5914 53.6083 44.5914V43.5914C53.3263 43.5914 53.084 43.6683 52.8461 43.8607C52.6472 44.0215 52.4529 44.2638 52.2272 44.5585L53.0212 45.1664ZM53.0178 45.1709L53.0212 45.1664L52.2272 44.5586L52.2237 44.5631L53.0178 45.1709ZM50.0955 46.8906C51.7211 46.8906 52.5294 45.8087 53.0178 45.171L52.2238 44.563C51.7263 45.2128 51.1871 45.8906 50.0955 45.8906V46.8906ZM47.1756 45.171C47.6637 45.8085 48.472 46.8906 50.0955 46.8906V45.8906C49.0064 45.8906 48.4673 45.2131 47.9696 44.5631L47.1756 45.171ZM47.1721 45.1664L47.1755 45.1709L47.9696 44.5631L47.9662 44.5586L47.1721 45.1664ZM46.585 44.5914C46.6309 44.5914 46.6495 44.5967 46.6574 44.5994C46.6648 44.602 46.6834 44.6093 46.7198 44.6386C46.8099 44.7114 46.9344 44.8543 47.1714 45.1655L47.9669 44.5595C47.7419 44.2641 47.5475 44.0216 47.3477 43.8604C47.1094 43.6681 46.8667 43.5914 46.585 43.5914V44.5914ZM45.9985 45.1681C46.2367 44.8558 46.362 44.7118 46.4526 44.6386C46.4892 44.6089 46.5079 44.6016 46.5149 44.5992C46.5222 44.5966 46.5401 44.5914 46.585 44.5914V43.5914C46.3035 43.5914 46.0614 43.6687 45.8237 43.8611C45.6243 44.0223 45.4295 44.2651 45.2034 44.5617L45.9985 45.1681ZM43.0746 46.8931C44.7016 46.8931 45.5121 45.8064 45.9986 45.1679L45.2033 44.5619C44.7081 45.2117 44.1664 45.8931 43.0746 45.8931V46.8931ZM40.1523 45.1734C40.6407 45.8112 41.4489 46.8931 43.0746 46.8931V45.8931C41.983 45.8931 41.4438 45.2152 40.9463 44.5655L40.1523 45.1734ZM40.1489 45.1689L40.1524 45.1735L40.9463 44.5654L40.9428 44.5609L40.1489 45.1689ZM39.5618 44.5938C39.6077 44.5938 39.6263 44.5991 39.6341 44.6018C39.6415 44.6044 39.6601 44.6117 39.6965 44.6411C39.7867 44.7138 39.9111 44.8567 40.1481 45.1679L40.9436 44.5619C40.7186 44.2666 40.5243 44.024 40.3245 43.8628C40.0861 43.6705 39.8434 43.5938 39.5618 43.5938V44.5938ZM38.9747 45.1688C39.2134 44.8571 39.3379 44.7138 39.4283 44.6407C39.4647 44.6113 39.4831 44.6041 39.4901 44.6017C39.4976 44.5991 39.5159 44.5938 39.5618 44.5938V43.5938C39.2798 43.5938 39.0375 43.6707 38.7996 43.8631C38.6007 44.0239 38.4063 44.2662 38.1807 44.561L38.9747 45.1688ZM36.0513 46.8931C37.6809 46.8931 38.4891 45.8061 38.9754 45.1679L38.18 44.5619C37.6846 45.212 37.1454 45.8931 36.0513 45.8931V46.8931ZM33.1315 45.1734C33.6196 45.8109 34.4279 46.8931 36.0513 46.8931V45.8931C34.9623 45.8931 34.4232 45.2155 33.9255 44.5655L33.1315 45.1734ZM33.128 45.1688L33.1315 45.1734L33.9255 44.5655L33.922 44.561L33.128 45.1688ZM32.5409 44.5938C32.5868 44.5938 32.6054 44.5991 32.6133 44.6018C32.6207 44.6044 32.6393 44.6117 32.6757 44.6411C32.7658 44.7138 32.8903 44.8567 33.1273 45.1679L33.9228 44.5619C33.6978 44.2666 33.5034 44.024 33.3036 43.8628C33.0653 43.6705 32.8226 43.5938 32.5409 43.5938V44.5938ZM31.9544 45.1705C32.1926 44.8582 32.3178 44.7142 32.4084 44.641C32.4451 44.6113 32.4637 44.604 32.4708 44.6016C32.4781 44.599 32.496 44.5938 32.5409 44.5938V43.5938C32.2594 43.5938 32.0173 43.6712 31.7795 43.8635C31.5802 44.0247 31.3854 44.2675 31.1593 44.5641L31.9544 45.1705ZM29.0305 46.8955C30.6575 46.8955 31.468 45.8088 31.9545 45.1703L31.1591 44.5643C30.6639 45.2141 30.1224 45.8955 29.0305 45.8955V46.8955ZM26.1106 45.1758C26.5988 45.8133 27.4071 46.8955 29.0305 46.8955V45.8955C27.9414 45.8955 27.4023 45.2179 26.9046 44.5679L26.1106 45.1758ZM26.1071 45.1712L26.1106 45.1757L26.9047 44.568L26.9012 44.5634L26.1071 45.1712ZM25.5201 44.5962C25.566 44.5962 25.5846 44.6015 25.5924 44.6042C25.5998 44.6068 25.6184 44.6141 25.6548 44.6435C25.745 44.7162 25.8694 44.8591 26.1064 45.1703L26.9019 44.5643C26.6769 44.269 26.4826 44.0264 26.2827 43.8652C26.0444 43.6729 25.8017 43.5962 25.5201 43.5962V44.5962ZM24.9336 45.1729C25.1717 44.8606 25.297 44.7167 25.3876 44.6434C25.4243 44.6137 25.4429 44.6064 25.4499 44.604C25.4573 44.6014 25.4751 44.5962 25.5201 44.5962V43.5962C25.2386 43.5962 24.9965 43.6736 24.7587 43.8659C24.5593 44.0271 24.3646 44.2699 24.1384 44.5665L24.9336 45.1729ZM22.0096 46.8979C23.6366 46.8979 24.4472 45.8112 24.9337 45.1728L24.1383 44.5667C23.6431 45.2165 23.1014 45.8979 22.0096 45.8979V46.8979ZM20.5369 46.2487C20.9125 46.6699 21.4425 46.8979 22.0096 46.8979V45.8979C21.7153 45.8979 21.461 45.7826 21.2833 45.5832L20.5369 46.2487ZM20.1548 41.809C20.0177 42.8086 19.908 43.6727 19.9248 44.3843C19.9417 45.1013 20.0874 45.7481 20.538 46.25L21.2821 45.5819C21.0614 45.3361 20.9389 44.972 20.9245 44.3608C20.91 43.7441 21.006 42.9625 21.1456 41.9449L20.1548 41.809ZM20.1595 41.775L20.1547 41.8099L21.1457 41.944L21.1504 41.9091L20.1595 41.775ZM20.3568 39.5036C20.3768 39.721 20.357 40.0909 20.313 40.5294C20.2702 40.9565 20.209 41.4087 20.1595 41.775L21.1504 41.9091C21.1996 41.5456 21.2632 41.0763 21.308 40.6292C21.3517 40.1934 21.3824 39.7361 21.3526 39.4121L20.3568 39.5036ZM15.6279 46.1103C16.2752 44.8581 17.2245 43.3687 18.2268 42.1565C18.728 41.5504 19.2336 41.0244 19.7126 40.6335C20.2001 40.2357 20.6192 40.0118 20.9485 39.949L20.761 38.9667C20.1916 39.0754 19.618 39.4201 19.0804 39.8587C18.5343 40.3043 17.9826 40.8826 17.4562 41.5193C16.4031 42.7927 15.4156 44.3433 14.7396 45.6512L15.6279 46.1103ZM14.3248 46.898C14.8661 46.898 15.3765 46.6018 15.6289 46.1085L14.7386 45.653C14.6638 45.7992 14.5054 45.898 14.3248 45.898V46.898ZM14.2065 46.8919C14.2609 46.8986 14.3105 46.898 14.3248 46.898V45.898C14.3197 45.898 14.3168 45.898 14.3142 45.898C14.3118 45.8979 14.311 45.8979 14.3112 45.8979C14.3114 45.8979 14.3177 45.8981 14.3277 45.8993L14.2065 46.8919ZM12.951 45.9526C13.1521 46.4985 13.6645 46.8631 14.2395 46.8949L14.2947 45.8964C14.1046 45.8859 13.948 45.7662 13.8893 45.6068L12.951 45.9526ZM12.8576 36.641C11.7663 38.275 11.7735 40.5028 12.0317 42.3C12.2937 44.1231 12.8353 45.6403 12.9513 45.9534L13.889 45.606C13.7836 45.3215 13.269 43.8799 13.0216 42.1577C12.7703 40.4096 12.8147 38.5058 13.6892 37.1964L12.8576 36.641ZM16.6969 34.5906C15.043 34.6951 13.6947 35.39 12.8578 36.6406L13.689 37.1968C14.3246 36.2468 15.363 35.6769 16.76 35.5886L16.6969 34.5906ZM18.315 34.1884C18.3373 34.1352 18.3177 34.2247 18.0212 34.3426C17.7526 34.4495 17.3248 34.5505 16.6966 34.5906L16.7603 35.5886C17.4578 35.5441 17.9961 35.4288 18.3908 35.2718C18.7579 35.1258 19.0991 34.9038 19.237 34.5755L18.315 34.1884ZM18.0896 33.9223C18.1943 34.0384 18.2555 34.1413 18.2833 34.2117C18.297 34.2463 18.2988 34.2632 18.2988 34.2632C18.2987 34.2625 18.2981 34.2552 18.2998 34.2426C18.3015 34.2298 18.3055 34.2109 18.3149 34.1884L19.237 34.5755C19.3488 34.3092 19.289 34.0354 19.2133 33.844C19.1316 33.6376 18.9967 33.4349 18.832 33.2523L18.0896 33.9223ZM14.4459 33.1185C16.1029 32.6785 17.5074 33.2752 18.0891 33.9218L18.8325 33.2529C17.9801 32.3055 16.1798 31.6234 14.1893 32.152L14.4459 33.1185ZM8.48069 40.155C8.93652 38.5305 9.84595 36.9149 10.9482 35.6266C12.0577 34.3299 13.3172 33.4166 14.4453 33.1186L14.1899 32.1518C12.7891 32.5219 11.3671 33.5989 10.1884 34.9764C9.00253 36.3624 8.01724 38.1052 7.51787 39.8848L8.48069 40.155ZM9.02459 44.4487C8.45886 43.8814 8.23195 43.1227 8.1965 42.3234C8.16098 41.5226 8.32088 40.7268 8.48082 40.1545L7.51773 39.8853C7.34323 40.5097 7.15543 41.4195 7.19748 42.3678C7.23961 43.3176 7.51555 44.3516 8.31647 45.1548L9.02459 44.4487ZM8.99611 46.4945C9.57865 45.9397 9.59372 45.0229 9.02564 44.4498L8.31542 45.1538C8.4884 45.3283 8.48422 45.601 8.30646 45.7703L8.99611 46.4945ZM6.93554 46.4667C7.50067 47.0332 8.41639 47.0431 8.99497 46.4955L8.3076 45.7692C8.12105 45.9458 7.82419 45.9416 7.64347 45.7604L6.93554 46.4667ZM5.6604 39.3889C4.86268 42.2331 5.25739 44.7853 6.9356 46.4668L7.6434 45.7604C6.30445 44.4188 5.88591 42.2879 6.62324 39.659L5.6604 39.3889ZM13.687 30.3372C11.7823 30.8398 10.0303 32.2112 8.64095 33.872C7.24763 35.5375 6.17786 37.5424 5.66037 39.389L6.62327 39.6589C7.09929 37.9602 8.09748 36.0801 9.40795 34.5136C10.7224 32.9424 12.31 31.7348 13.9422 31.3041L13.687 30.3372ZM20.2783 32.012C19.0158 30.6085 16.5006 29.594 13.6869 30.3372L13.9423 31.304C16.3977 30.6555 18.526 31.5593 19.5349 32.6808L20.2783 32.012ZM21.0165 35.297C21.4844 34.1939 21.1588 32.9881 20.2779 32.0115L19.5353 32.6813C20.228 33.4492 20.3739 34.2511 20.0959 34.9065L21.0165 35.297ZM16.8852 37.4674C19.4909 37.3015 20.5979 36.2819 21.0164 35.2973L20.0961 34.9061C19.865 35.4498 19.1626 36.3204 16.8216 36.4694L16.8852 37.4674ZM15.303 38.2272C15.5953 37.791 16.0726 37.5193 16.8852 37.4674L16.8215 36.4694C15.7911 36.5352 14.9836 36.9076 14.4723 37.6704L15.303 38.2272ZM15.1215 42.9244C14.9419 42.0871 14.8101 41.1593 14.818 40.305C14.8261 39.439 14.9776 38.714 15.3034 38.2266L14.472 37.6709C13.9869 38.3966 13.8269 39.3538 13.8181 40.2957C13.8092 41.2492 13.9552 42.2552 14.1438 43.1341L15.1215 42.9244ZM21.2477 37.0564C19.7284 37.0101 18.312 37.9327 17.1443 39.0529C15.9609 40.1882 14.9418 41.6145 14.2111 42.7604L15.0542 43.2981C15.7672 42.1799 16.7367 40.8297 17.8366 39.7745C18.9523 38.7042 20.1139 38.0223 21.2172 38.0559L21.2477 37.0564ZM22.6867 37.7352C22.3224 37.3125 21.8065 37.075 21.2491 37.0564L21.2158 38.0559C21.5053 38.0655 21.7545 38.1853 21.9292 38.388L22.6867 37.7352ZM23.2555 39.2243C23.2018 38.6674 23.0477 38.1509 22.6855 37.7338L21.9304 38.3894C22.1071 38.5929 22.2177 38.8804 22.2602 39.3204L23.2555 39.2243ZM32.1647 35.9935C27.0003 36.5029 24.3361 37.6566 22.4864 38.8524L23.0293 39.6922C24.7213 38.5983 27.2258 37.4855 32.2629 36.9887L32.1647 35.9935ZM37.1728 1.41138C36.6414 2.02338 26.1448 14.5085 31.729 36.6136L32.6985 36.3687C27.2243 14.699 37.5162 2.54117 37.9279 2.06703L37.1728 1.41138ZM37.2563 1.33368C37.2544 1.33521 37.2284 1.3547 37.2009 1.3816L37.8998 2.09681C37.8893 2.10704 37.8803 2.11475 37.8745 2.11956C37.8695 2.1237 37.8653 2.12686 37.8681 2.12472L37.2563 1.33368ZM37.1802 1.41123C37.2023 1.38245 37.2237 1.36175 37.2382 1.34883C37.2505 1.33795 37.2614 1.32974 37.2564 1.33363L37.868 2.12478C37.8684 2.12452 37.8845 2.1123 37.9017 2.09706C37.9211 2.0798 37.9471 2.05442 37.9734 2.02016L37.1802 1.41123ZM37.3472 1.24806C37.3057 1.28236 37.2605 1.32239 37.2133 1.37235L37.9403 2.05904C37.9508 2.04787 37.9634 2.03618 37.9844 2.01876L37.3472 1.24806ZM37.4531 1.16508C37.3954 1.20264 37.3504 1.24252 37.3164 1.27578L38.0153 1.99104C38.0197 1.98668 38.0132 1.99364 37.9989 2.003L37.4531 1.16508ZM37.5768 1.09279C37.5483 1.10828 37.5017 1.13341 37.4531 1.16509L37.9989 2.00299C38.0094 1.99617 38.0218 1.98911 38.0551 1.97097L37.5768 1.09279ZM37.5969 1.0818L37.5762 1.09311L38.0557 1.97064L38.0764 1.95933L37.5969 1.0818ZM37.6976 1.02903C37.6392 1.0544 37.5913 1.08451 37.5761 1.09384L38.0973 1.94728C38.1024 1.94415 38.1053 1.94239 38.1079 1.94083C38.1102 1.93942 38.1111 1.93894 38.111 1.939C38.1108 1.93911 38.1052 1.94225 38.096 1.94626L37.6976 1.02903ZM37.9177 0.95726C37.8504 0.973689 37.7801 0.995015 37.7066 1.02525L38.087 1.95004C38.105 1.94266 38.126 1.93578 38.155 1.9287L37.9177 0.95726ZM37.9152 0.958683C37.9078 0.961094 37.9123 0.959526 37.9187 0.95774C37.9261 0.955679 37.9435 0.951088 37.9672 0.94778L38.1055 1.93818C38.1682 1.92942 38.2221 1.91042 38.2249 1.90951L37.9152 0.958683ZM37.9525 0.947282C37.9348 0.952202 37.919 0.957428 37.9152 0.958673L38.2249 1.90952C38.2281 1.90847 38.2284 1.90838 38.2283 1.90842C38.2279 1.90854 38.2253 1.90936 38.2213 1.91046L37.9525 0.947282ZM38.289 0.907715C38.1853 0.907715 38.0823 0.918218 37.9808 0.940262L38.193 1.91748C38.2214 1.91132 38.2531 1.90771 38.289 1.90771V0.907715ZM38.4475 0.91269L38.3055 0.907989L38.2724 1.90744L38.4144 1.91214L38.4475 0.91269ZM39.5431 1.41696C39.2627 1.09252 38.8561 0.912416 38.4309 0.912416V1.91242C38.5736 1.91242 38.7011 1.97212 38.7865 2.07084L39.5431 1.41696ZM45.0346 36.4453C50.5191 14.4468 40.0738 2.02519 39.5415 1.41518L38.788 2.07263C39.1989 2.54353 49.4406 14.6388 44.0643 36.2034L45.0346 36.4453ZM61.0357 42.7823C60.9729 42.5566 60.456 41.0093 58.1337 39.4218C55.8189 37.8393 51.7379 36.2352 44.578 35.8251L44.5208 36.8235C51.561 37.2267 55.4487 38.7976 57.5693 40.2473C58.629 40.9717 59.2525 41.6691 59.6115 42.1844C59.7914 42.4425 59.9059 42.6565 59.9758 42.8073C60.0108 42.8827 60.0346 42.9424 60.05 42.984C60.0576 43.0048 60.0631 43.021 60.0668 43.0324C60.0686 43.038 60.07 43.0424 60.0709 43.0455C60.0714 43.0471 60.0717 43.0483 60.072 43.0491C60.0721 43.0495 60.0722 43.0498 60.0722 43.05C60.0723 43.0502 60.0723 43.0501 60.0723 43.0503C60.0723 43.0504 60.0723 43.0502 60.0723 43.0504L61.0357 42.7823ZM61.0452 42.8226L61.044 42.8167L60.064 43.0159L60.0652 43.0218L61.0452 42.8226ZM61.0523 42.8675L61.0511 42.858L60.0593 42.9863L60.0606 42.9958L61.0523 42.8675ZM61.0512 42.8611C61.0522 42.8674 61.0528 42.8721 61.0531 42.8741C61.0533 42.8758 61.0535 42.8771 61.0532 42.875L60.0597 42.9883C60.0598 42.9892 60.0614 43.0044 60.0641 43.0212L61.0512 42.8611ZM61.0432 42.8228C61.0476 42.8398 61.05 42.8534 61.0512 42.8608L60.0642 43.0215C60.066 43.0329 60.0692 43.0503 60.0745 43.071L61.0432 42.8228ZM61.0672 42.9608L61.0528 42.8691L60.0649 43.0247L60.0794 43.1164L61.0672 42.9608ZM61.0829 43.1373C61.0829 43.0619 61.0719 42.9928 61.068 42.9662L60.0785 43.111C60.0798 43.1195 60.0807 43.1256 60.0814 43.1312C60.0822 43.1366 60.0826 43.1401 60.0829 43.1425C60.0834 43.1475 60.0829 43.1447 60.0829 43.1373H61.0829ZM61.0853 43.1655C61.0853 43.1423 61.0838 43.1232 61.0826 43.1108C61.082 43.1045 61.0814 43.0992 61.081 43.0955C61.0806 43.092 61.0802 43.0889 61.0801 43.0881C61.0799 43.0866 61.08 43.0873 61.0801 43.0884C61.0803 43.0898 61.0806 43.0927 61.081 43.0967C61.0817 43.1044 61.0829 43.1188 61.0829 43.1373H60.0829C60.0829 43.1605 60.0844 43.1797 60.0856 43.1921C60.0862 43.1984 60.0868 43.2037 60.0872 43.2074C60.0876 43.2108 60.088 43.214 60.0881 43.2148C60.0883 43.2163 60.0882 43.2155 60.0881 43.2144C60.0879 43.2131 60.0876 43.2102 60.0872 43.2062C60.0865 43.1985 60.0853 43.1841 60.0853 43.1655H61.0853ZM61.0765 43.2831C61.0773 43.2761 61.0853 43.2234 61.0853 43.1655H60.0853C60.0853 43.1533 60.0861 43.1444 60.0864 43.1418C60.0865 43.1408 60.0865 43.1409 60.0862 43.1435C60.086 43.1448 60.0858 43.1463 60.0855 43.1485C60.0853 43.1504 60.0849 43.1533 60.0845 43.1562L61.0765 43.2831ZM61.0569 43.4278C61.0732 43.3531 61.0774 43.2797 61.0792 43.2561L60.0818 43.1832C60.0812 43.1923 60.0807 43.1985 60.0802 43.2047C60.0797 43.2106 60.0794 43.2146 60.0791 43.2175C60.0784 43.2239 60.0784 43.2213 60.0801 43.2136L61.0569 43.4278ZM61.0336 43.5293C61.0399 43.5046 61.0525 43.4565 61.0613 43.4048L60.0756 43.2366C60.0748 43.2413 60.0729 43.2497 60.0648 43.2814L61.0336 43.5293ZM61.021 43.5728C61.0239 43.5627 61.0251 43.5587 61.0261 43.5556L60.0723 43.2551C60.0675 43.2706 60.0632 43.2852 60.0608 43.2936L61.021 43.5728ZM60.9803 43.6908C61.0024 43.6388 61.0164 43.5887 61.021 43.5729L60.0608 43.2935C60.0592 43.299 60.0582 43.3025 60.0572 43.3057C60.0563 43.3087 60.0559 43.3102 60.0557 43.3107C60.0553 43.312 60.0568 43.307 60.0604 43.2986L60.9803 43.6908ZM41.7387 38.7206H39.2509V39.7206H41.7387V38.7206ZM38.8222 5.48317C41.5798 10.077 46.688 21.7312 41.2616 39.0713L42.2159 39.37C47.7469 21.6957 42.5472 9.74567 39.6796 4.96849L38.8222 5.48317ZM39.7509 39.2206V5.22583H38.7509V39.2206H39.7509ZM37.8261 39.2206V5.4726H36.8261V39.2206H37.8261ZM34.9802 39.7206H37.3261V38.7206H34.9802V39.7206ZM36.8943 5.22049C34.0065 10.1667 29.0791 22.0395 34.5031 39.37L35.4574 39.0713C30.1361 22.0688 34.9771 10.4876 37.7579 5.7247L36.8943 5.22049ZM56.9814 43.8803L56.9765 43.8955L57.9287 44.2009L57.9336 44.1857L56.9814 43.8803ZM57.5178 44.5293L57.5186 44.5292L57.3964 43.5367L57.3956 43.5368L57.5178 44.5293ZM57.9106 42.3159C57.318 42.8245 57.0923 43.5322 56.9806 43.8804L57.9328 44.1857C58.0473 43.8286 58.2066 43.3797 58.5618 43.0748L57.9106 42.3159ZM44.0278 38.6832C53.7061 39.1706 56.9049 41.8452 57.8476 43.0099L58.6249 42.3808C57.4364 40.9124 53.9129 38.1798 44.0781 37.6845L44.0278 38.6832ZM43.8378 40.6053C44.0902 39.8323 44.3206 39.0714 44.534 38.3205L43.572 38.0472C43.3619 38.7868 43.1352 39.5353 42.8871 40.295L43.8378 40.6053ZM42.4458 41.6061C43.0757 41.6061 43.6414 41.2061 43.8377 40.6055L42.8872 40.2948C42.8284 40.4747 42.6531 40.6061 42.4458 40.6061V41.6061ZM34.2704 41.6061H42.4458V40.6061H34.2704V41.6061ZM32.8784 40.6055C33.0747 41.2061 33.6405 41.6061 34.2704 41.6061V40.6061C34.0629 40.6061 33.8877 40.4747 33.8289 40.2949L32.8784 40.6055ZM32.2308 38.4773C32.4316 39.1748 32.6449 39.883 32.8779 40.6039L33.8294 40.2964C33.6004 39.5879 33.3903 38.8902 33.1917 38.2006L32.2308 38.4773ZM22.9219 42.102C23.7532 41.4734 24.6878 40.8054 26.1647 40.2196C27.6474 39.6315 29.6982 39.1182 32.757 38.8369L32.6655 37.8411C29.5383 38.1287 27.3893 38.6581 25.796 39.2901C24.1967 39.9244 23.1788 40.6541 22.3187 41.3044L22.9219 42.102ZM23.0942 41.933C23.1014 41.8776 23.1084 41.8243 23.1157 41.7708L22.1249 41.6356C22.1171 41.6923 22.1098 41.7485 22.1026 41.8035L23.0942 41.933ZM23.0575 42.2047C23.0712 42.1092 23.083 42.0188 23.0942 41.933L22.1026 41.8035C22.0913 41.8901 22.0803 41.9742 22.0677 42.0622L23.0575 42.2047ZM22.8526 44.4165C22.8267 43.9112 22.9608 42.9118 23.058 42.2011L22.0672 42.0657C21.9766 42.728 21.822 43.8444 21.8539 44.4676L22.8526 44.4165ZM22.5972 43.4512C22.2934 43.852 22.1752 43.9676 22.1039 44.0087L22.6026 44.8754C22.8826 44.7143 23.1205 44.4162 23.3941 44.0553L22.5972 43.4512ZM22.6022 43.4446L22.5988 43.4491L23.3925 44.0574L23.396 44.0529L22.6022 43.4446ZM25.5244 41.7251C23.8988 41.7251 23.0905 42.807 22.6021 43.4448L23.3961 44.0527C23.8936 43.403 24.4328 42.7251 25.5244 42.7251V41.7251ZM28.4443 43.4447C27.9561 42.8072 27.1478 41.7251 25.5244 41.7251V42.7251C26.6135 42.7251 27.1526 43.4027 27.6503 44.0527L28.4443 43.4447ZM28.4476 43.4492L28.4442 43.4446L27.6504 44.0528L27.6538 44.0573L28.4476 43.4492ZM29.0348 44.0243C28.9889 44.0243 28.9703 44.019 28.9625 44.0163C28.9551 44.0138 28.9365 44.0065 28.9001 43.9771C28.8099 43.9044 28.6855 43.7614 28.4485 43.4503L27.653 44.0562C27.878 44.3516 28.0723 44.5942 28.2721 44.7554C28.5105 44.9476 28.7532 45.0243 29.0348 45.0243V44.0243ZM29.6219 43.4493C29.3832 43.7611 29.2587 43.9043 29.1683 43.9774C29.1319 44.0069 29.1135 44.014 29.1065 44.0165C29.099 44.019 29.0807 44.0243 29.0348 44.0243V45.0243C29.3168 45.0243 29.5591 44.9474 29.797 44.7551C29.9959 44.5943 30.1903 44.3519 30.4159 44.0572L29.6219 43.4493ZM29.6255 43.4447L29.622 43.4492L30.4158 44.0573L30.4193 44.0528L29.6255 43.4447ZM32.5477 41.7251C30.922 41.7251 30.1137 42.807 29.6254 43.4448L30.4193 44.0527C30.9169 43.403 31.4561 42.7251 32.5477 42.7251V41.7251ZM35.4675 43.4447C34.9794 42.8072 34.1711 41.7251 32.5477 41.7251V42.7251C33.6367 42.7251 34.1758 43.4026 34.6735 44.0527L35.4675 43.4447ZM35.4711 43.4494L35.4676 43.4448L34.6735 44.0526L34.6769 44.0571L35.4711 43.4494ZM36.0581 44.0243C36.0131 44.0243 35.9952 44.0191 35.9877 44.0165C35.9805 44.0141 35.9619 44.0067 35.9251 43.9771C35.8345 43.9039 35.7092 43.7605 35.471 43.4493L34.677 44.0572C34.9031 44.3526 35.0979 44.5946 35.2972 44.7554C35.5348 44.9471 35.7767 45.0243 36.0581 45.0243V44.0243ZM36.6452 43.4493C36.4065 43.7611 36.282 43.9043 36.1916 43.9774C36.1552 44.0069 36.1368 44.014 36.1297 44.0165C36.1223 44.019 36.104 44.0243 36.0581 44.0243V45.0243C36.3401 45.0243 36.5823 44.9474 36.8203 44.7551C37.0192 44.5943 37.2135 44.3519 37.4392 44.0572L36.6452 43.4493ZM39.5685 41.7251C37.939 41.7251 37.1308 42.812 36.6445 43.4502L37.4399 44.0563C37.9353 43.4061 38.4745 42.7251 39.5685 42.7251V41.7251ZM42.4884 43.4447C42.0002 42.8072 41.1919 41.7251 39.5685 41.7251V42.7251C40.6576 42.7251 41.1967 43.4026 41.6944 44.0527L42.4884 43.4447ZM42.492 43.4494L42.4885 43.4449L41.6943 44.0525L41.6978 44.0571L42.492 43.4494ZM43.0813 44.0267C43.0354 44.0267 43.0169 44.0214 43.0091 44.0187C43.0017 44.0162 42.983 44.0088 42.9464 43.9793C42.8558 43.9061 42.7307 43.7625 42.4924 43.45L41.6973 44.0564C41.9234 44.353 42.1183 44.596 42.3183 44.7574C42.5568 44.9499 42.7995 45.0267 43.0813 45.0267V44.0267ZM43.6684 43.4517C43.4297 43.7635 43.3053 43.9067 43.2148 43.9798C43.1784 44.0093 43.16 44.0164 43.153 44.0189C43.1455 44.0214 43.1273 44.0267 43.0813 44.0267V45.0267C43.3634 45.0267 43.6056 44.9498 43.8435 44.7575C44.0424 44.5967 44.2368 44.3544 44.4624 44.0596L43.6684 43.4517ZM43.6719 43.4471L43.6685 43.4516L44.4624 44.0597L44.4658 44.0552L43.6719 43.4471ZM46.5942 41.7275C44.9686 41.7275 44.1603 42.8094 43.6719 43.4472L44.4659 44.0551C44.9634 43.4054 45.5026 42.7275 46.5942 42.7275V41.7275ZM49.514 43.4471C49.0259 42.8096 48.2176 41.7275 46.5942 41.7275V42.7275C47.6832 42.7275 48.2223 43.4051 48.72 44.0551L49.514 43.4471ZM49.5176 43.4518L49.5141 43.4473L48.7199 44.0549L48.7234 44.0595L49.5176 43.4518ZM50.1046 44.0267C50.0587 44.0267 50.0401 44.0214 50.0323 44.0187C50.0249 44.0162 50.0062 44.0089 49.9698 43.9795C49.8797 43.9068 49.7553 43.7638 49.5183 43.4527L48.7228 44.0586C48.9477 44.354 49.1421 44.5966 49.3419 44.7578C49.5802 44.9501 49.823 45.0267 50.1046 45.0267V44.0267ZM50.6935 43.45C50.4553 43.7624 50.3302 43.9061 50.2396 43.9793C50.2029 44.0088 50.1842 44.0162 50.1768 44.0187C50.169 44.0214 50.1505 44.0267 50.1046 44.0267V45.0267C50.3864 45.0267 50.6292 44.9499 50.8677 44.7574C51.0676 44.596 51.2625 44.353 51.4887 44.0565L50.6935 43.45ZM53.6174 41.7251C51.9905 41.7251 51.1799 42.8117 50.6934 43.4502L51.4888 44.0563C51.984 43.4064 52.5256 42.7251 53.6174 42.7251V41.7251ZM56.5397 43.4447C56.0513 42.807 55.2431 41.7251 53.6174 41.7251V42.7251C54.7091 42.7251 55.2482 43.4029 55.7457 44.0527L56.5397 43.4447ZM56.5431 43.4492L56.5396 43.4447L55.7458 44.0528L55.7492 44.0573L56.5431 43.4492ZM57.1303 44.0243C57.0853 44.0243 57.0674 44.0191 57.0599 44.0165C57.0527 44.0141 57.034 44.0067 56.9973 43.9771C56.9066 43.9039 56.7814 43.7605 56.5432 43.4493L55.7492 44.0572C55.9753 44.3526 56.1701 44.5946 56.3694 44.7554C56.607 44.9471 56.8489 45.0243 57.1303 45.0243V44.0243ZM57.277 44.5079C57.0805 44.0481 57.0807 44.048 57.0809 44.0479C57.081 44.0479 57.0812 44.0478 57.0814 44.0477C57.0817 44.0476 57.082 44.0475 57.0823 44.0474C57.0829 44.0471 57.0835 44.0468 57.0841 44.0466C57.0853 44.0461 57.0865 44.0456 57.0877 44.0451C57.09 44.0442 57.0923 44.0433 57.0945 44.0424C57.099 44.0406 57.1034 44.039 57.1075 44.0375C57.1157 44.0346 57.1231 44.0323 57.1296 44.0304C57.1425 44.0266 57.1519 44.0247 57.1568 44.0238C57.1664 44.0221 57.1594 44.0243 57.1303 44.0243V45.0243C57.2094 45.0243 57.2757 45.0183 57.3317 45.0084C57.3598 45.0034 57.3855 44.9974 57.4091 44.9905C57.4208 44.9871 57.4321 44.9835 57.4428 44.9796C57.4482 44.9777 57.4535 44.9758 57.4586 44.9738C57.4612 44.9728 57.4637 44.9717 57.4662 44.9707C57.4674 44.9702 57.4687 44.9697 57.4699 44.9692C57.4705 44.9689 57.4711 44.9687 57.4717 44.9684C57.472 44.9683 57.4724 44.9681 57.4727 44.968C57.4728 44.968 57.473 44.9679 57.4731 44.9678C57.4733 44.9677 57.4736 44.9676 57.277 44.5079ZM56.9765 43.8956C56.9504 43.9767 56.9204 44.0704 56.8919 44.1493C56.8776 44.1891 56.8663 44.2179 56.8584 44.2356C56.8545 44.2446 56.8538 44.2453 56.8564 44.2405C56.8578 44.2379 56.8615 44.2313 56.8676 44.2221C56.8731 44.2137 56.8846 44.1969 56.9024 44.1768L57.6517 44.839C57.721 44.7606 57.7613 44.6667 57.7735 44.6389C57.7948 44.5906 57.8151 44.5373 57.8327 44.4883C57.8683 44.3896 57.9038 44.2785 57.9287 44.2008L56.9765 43.8956Z" fill="#222532"/>
<path d="M7.00345 30.8888C6.88074 30.7454 5.76436 29.4971 4.3352 29.4971C3.67355 29.4971 2.72796 29.7627 1.98452 31.0252L1.15442 32.4358H8.33628L7.00345 30.8888Z" fill="white" stroke="#222532"/>
<path fill-rule="evenodd" clip-rule="evenodd" d="M5.13682 34.2953L6.12571 34.3964L6.00064 35.3602C5.63729 37.9651 2.82707 40.7134 2.70677 40.8309L1.40511 42.0911L1.0827 40.3278C0.700138 38.2543 0.972014 36.6603 1.88872 35.5906C3.1711 34.0931 5.13682 34.2953 5.13682 34.2953ZM3.3684 36.7967C3.19757 36.9942 3.07005 37.2458 2.98103 37.542L2.98104 37.542C3.18555 37.2435 3.38284 36.9308 3.55126 36.6157C3.4887 36.6698 3.42615 36.7286 3.3684 36.7967Z" fill="white"/>
<path d="M6.12571 34.3964L6.62155 34.4607L6.68766 33.9512L6.17656 33.899L6.12571 34.3964ZM5.13682 34.2953L5.08566 34.7926L5.08597 34.7927L5.13682 34.2953ZM6.00064 35.3602L6.49586 35.4293L6.49648 35.4246L6.00064 35.3602ZM2.70677 40.8309L3.05455 41.1902L3.05621 41.1885L2.70677 40.8309ZM1.40511 42.0911L0.91326 42.181L1.08137 43.1004L1.75288 42.4503L1.40511 42.0911ZM1.0827 40.3278L1.57454 40.2379L1.5744 40.2371L1.0827 40.3278ZM1.88872 35.5906L2.26837 35.916L2.2685 35.9158L1.88872 35.5906ZM2.98103 37.542L2.50219 37.3981L2.44443 37.5903L2.53558 37.7691L2.98103 37.542ZM3.3684 36.7967L3.74658 37.1239L3.74994 37.1199L3.3684 36.7967ZM2.98104 37.542L2.53558 37.7691L2.91789 38.519L3.39355 37.8246L2.98104 37.542ZM3.55126 36.6157L3.9922 36.8515L3.22431 36.2374L3.55126 36.6157ZM6.17656 33.899L5.18767 33.7979L5.08597 34.7927L6.07486 34.8938L6.17656 33.899ZM6.49648 35.4246L6.62155 34.4607L5.62987 34.332L5.50479 35.2959L6.49648 35.4246ZM3.05621 41.1885C3.12471 41.1216 3.87839 40.3842 4.66397 39.3264C5.43931 38.2825 6.29622 36.8604 6.49584 35.4293L5.50543 35.2912C5.34171 36.4649 4.61183 37.7194 3.86116 38.7302C3.12071 39.7272 2.40914 40.4227 2.35733 40.4733L3.05621 41.1885ZM1.75288 42.4503L3.05455 41.1902L2.35899 40.4717L1.05733 41.7318L1.75288 42.4503ZM0.590853 40.4178L0.91326 42.181L1.89695 42.0011L1.57454 40.2379L0.590853 40.4178ZM1.50906 35.2653C0.453258 36.4972 0.194926 38.2718 0.590997 40.4186L1.5744 40.2371C1.20535 38.2368 1.49077 36.8233 2.26837 35.916L1.50906 35.2653ZM5.13682 34.2953C5.18797 33.7979 5.18777 33.7979 5.18755 33.7979C5.18747 33.7978 5.18725 33.7978 5.18709 33.7978C5.18676 33.7978 5.1864 33.7977 5.18601 33.7977C5.18524 33.7976 5.18434 33.7975 5.18332 33.7974C5.18128 33.7972 5.17876 33.797 5.17577 33.7967C5.16979 33.7962 5.16191 33.7955 5.15223 33.7948C5.13286 33.7933 5.10622 33.7916 5.07296 33.79C5.00652 33.787 4.91333 33.7847 4.79876 33.7872C4.57027 33.7922 4.253 33.8161 3.89106 33.892C3.16894 34.0434 2.24339 34.4077 1.50894 35.2654L2.2685 35.9158C2.81643 35.276 3.51493 34.9926 4.09627 34.8707C4.38605 34.81 4.64036 34.7909 4.82051 34.787C4.91026 34.785 4.98067 34.7868 5.02673 34.789C5.04973 34.79 5.06658 34.7912 5.07663 34.7919C5.08165 34.7923 5.08497 34.7926 5.0865 34.7927C5.08727 34.7928 5.08759 34.7928 5.08745 34.7928C5.08738 34.7928 5.0872 34.7928 5.0869 34.7928C5.08675 34.7928 5.08658 34.7927 5.08637 34.7927C5.08626 34.7927 5.08609 34.7927 5.08604 34.7927C5.08585 34.7927 5.08566 34.7926 5.13682 34.2953ZM3.45987 37.6859C3.53397 37.4393 3.63262 37.2556 3.74656 37.1239L2.99025 36.4696C2.76252 36.7329 2.60613 37.0522 2.50219 37.3981L3.45987 37.6859ZM3.42649 37.3149L3.42648 37.3149L2.53558 37.7691L2.53558 37.7691L3.42649 37.3149ZM3.11032 36.38C2.95307 36.6741 2.76632 36.9707 2.56853 37.2595L3.39355 37.8246C3.60477 37.5162 3.8126 37.1874 3.9922 36.8515L3.11032 36.38ZM3.74994 37.1199C3.78455 37.079 3.82597 37.0392 3.87821 36.994L3.22431 36.2374C3.15143 36.3004 3.06774 36.3781 2.98686 36.4736L3.74994 37.1199Z" fill="#222532"/>
<path fill-rule="evenodd" clip-rule="evenodd" d="M12.5467 29.0617C12.5467 30.0444 11.7263 30.8437 10.7206 30.8437C9.71488 30.8437 8.89685 30.0444 8.89685 29.0617C8.89685 28.079 9.71488 27.2797 10.7206 27.2797C11.7287 27.2797 12.5467 28.079 12.5467 29.0617ZM10.8217 29.0616C10.8217 29.0076 10.7759 28.9629 10.7206 28.9629C10.6653 28.9629 10.622 29.0076 10.622 29.0616C10.622 29.1698 10.8217 29.1698 10.8217 29.0616Z" fill="white"/>
<path d="M10.7206 31.3437C11.9906 31.3437 13.0467 30.3322 13.0467 29.0617H12.0467C12.0467 29.7565 11.462 30.3437 10.7206 30.3437V31.3437ZM8.39685 29.0617C8.39685 30.3314 9.44971 31.3437 10.7206 31.3437V30.3437C9.98005 30.3437 9.39685 29.7574 9.39685 29.0617H8.39685ZM10.7206 26.7797C9.44971 26.7797 8.39685 27.792 8.39685 29.0617H9.39685C9.39685 28.366 9.98005 27.7797 10.7206 27.7797V26.7797ZM13.0467 29.0617C13.0467 27.7916 11.9934 26.7797 10.7206 26.7797V27.7797C11.464 27.7797 12.0467 28.3664 12.0467 29.0617H13.0467ZM10.7206 29.4629C10.5108 29.4629 10.3217 29.2945 10.3217 29.0616H11.3217C11.3217 28.7206 11.0411 28.4629 10.7206 28.4629V29.4629ZM11.122 29.0616C11.122 29.2789 10.9462 29.4629 10.7206 29.4629V28.4629C10.3843 28.4629 10.122 28.7362 10.122 29.0616H11.122ZM10.3217 29.0616C10.3217 28.9125 10.3995 28.788 10.4977 28.7171C10.5813 28.6568 10.6648 28.6427 10.7218 28.6427C10.7788 28.6427 10.8624 28.6568 10.9459 28.7171C11.0441 28.788 11.122 28.9125 11.122 29.0616H10.122C10.122 29.2649 10.2248 29.4299 10.3605 29.5278C10.4814 29.6152 10.6149 29.6427 10.7218 29.6427C10.8287 29.6427 10.9622 29.6152 11.0832 29.5278C11.2188 29.4299 11.3217 29.2649 11.3217 29.0616H10.3217Z" fill="#222532"/>
</svg>
