<svg width="52" height="32" viewBox="0 0 52 32" fill="none" xmlns="http://www.w3.org/2000/svg">
<path fill-rule="evenodd" clip-rule="evenodd" d="M50.5609 21.1454V23.8662L50.5604 23.8663C51.1439 23.9812 51.5835 24.4771 51.5835 25.0667V26.0451C51.5835 26.6387 51.1439 27.1326 50.5604 27.2475V27.2724H43.8444C43.4727 29.4914 41.4685 31.1936 39.0506 31.1936C36.6328 31.1936 34.6286 29.4914 34.2589 27.2724H16.4766C16.1049 29.4914 14.1008 31.1936 11.6829 31.1936C9.26504 31.1936 7.25885 29.4895 6.88918 27.2724H2.98666L2.22134 27.2743C1.51398 27.2743 0.940491 26.7229 0.940491 26.047V25.0687C0.940491 24.3909 1.51598 23.8414 2.22134 23.8414H2.98666V12.815C2.98666 9.43566 5.85617 6.68623 9.38301 6.68623L15.2857 6.6824V4.72755C9.05971 4.15893 3.78421 3.09629 2.18763 1.56649C1.94985 1.34058 1.8939 0.992102 2.04976 0.706822C2.20562 0.423453 2.53335 0.266454 2.86506 0.323894C7.95645 1.19695 15.8736 1.31375 22.9431 1.31375C24.4458 1.31375 25.9225 1.30992 27.3412 1.30417C27.7021 1.30312 28.0593 1.30193 28.4123 1.30075L28.4125 1.30075L28.4127 1.30075L28.4128 1.30075C29.3476 1.29763 30.2531 1.2946 31.1218 1.2946L37.708 1.29651H37.71C42.1681 1.29651 44.9136 1.26779 48.4744 1.10122C48.8261 1.08779 49.1518 1.30607 49.2497 1.63347C49.3476 1.96089 49.1977 2.31128 48.888 2.47785C48.3745 2.75356 47.735 3.01011 46.9777 3.24753V4.73522C46.9777 5.3977 46.61 5.97015 45.9926 6.26884C45.7308 6.39521 45.4551 6.45839 45.1813 6.45839C44.8097 6.45839 44.44 6.34351 44.1203 6.11567L41.6445 4.35614C38.4913 4.79652 34.5869 5.07606 30.099 5.17562V6.68816L35.4681 6.68625C38.8893 6.68625 42.0445 7.78334 44.5782 9.62713L44.788 9.78413C46.9081 11.3827 48.5706 13.5137 49.5557 15.9664L49.5617 15.9778L49.5757 16.0104C49.5897 16.0485 49.6048 16.0855 49.6199 16.1223C49.6328 16.1539 49.6457 16.1853 49.6577 16.2172L49.9634 16.9773H49.9194C50.3351 18.2984 50.5609 19.698 50.5609 21.1454ZM36.4935 15.5086H47.6774H47.6777C46.8184 13.8104 45.5795 12.3035 44.0429 11.0973H36.4935C36.3557 11.0973 36.2378 11.2103 36.2378 11.3424V15.2635C36.2378 15.3956 36.3557 15.5086 36.4935 15.5086ZM45.4454 4.73509C45.4454 4.83656 45.3995 4.90932 45.3035 4.95527C45.2076 5.00122 45.1217 4.99356 45.0358 4.9323L43.7489 4.019C44.3524 3.90796 44.9179 3.78925 45.4454 3.66479L45.4454 4.73509ZM26.3555 2.77934C25.2439 2.78265 24.103 2.78605 22.9457 2.78605L22.9461 2.78601C18.4041 2.78601 13.5124 2.73623 9.21424 2.47009C13.3424 3.21683 19.2794 3.74526 26.263 3.74526C32.6808 3.74526 38.2941 3.38534 42.3684 2.75158C40.9796 2.7669 39.4789 2.77265 37.7125 2.77265H37.7105L31.1224 2.7669C29.9275 2.7669 28.6626 2.77073 27.3477 2.77647L26.3555 2.77934ZM16.821 4.85962C19.9002 5.09512 23.1493 5.21574 26.2625 5.21574C27.0438 5.21574 27.8111 5.21 28.5645 5.20042V6.68616H16.821V4.85962ZM8.35851 26.5374C8.35851 28.295 9.8492 29.7234 11.6835 29.7234C13.5179 29.7234 15.0086 28.295 15.0086 26.5374C15.0086 24.7798 13.5179 23.3514 11.6835 23.3514C9.8492 23.3514 8.35851 24.7798 8.35851 26.5374ZM39.0511 29.7234C37.2168 29.7234 35.7261 28.295 35.7261 26.5374C35.7261 24.7798 37.2168 23.3514 39.0511 23.3514C40.8855 23.3514 42.3762 24.7798 42.3762 26.5374C42.3762 28.295 40.8855 29.7234 39.0511 29.7234ZM39.0511 21.881C41.469 21.881 43.4752 23.5831 43.8448 25.8022H50.0492V25.312H45.4453V23.8416H49.0261V21.1477C49.0261 19.6887 48.7704 18.2891 48.3068 16.9795H36.4932C35.5061 16.9795 34.7028 16.2098 34.7028 15.264V11.3428C34.7028 10.397 35.5061 9.6273 36.4932 9.6273H41.7227C39.8502 8.69102 37.7221 8.15686 35.4681 8.15686H9.38347C6.70186 8.15686 4.52181 10.2476 4.52181 12.8152V15.5091H12.2308V16.9795H4.52181V23.8416H5.5449V25.312H2.47564V25.8022H6.88969C7.26138 23.5831 9.26556 21.881 11.6834 21.881C14.1013 21.881 16.1075 23.5831 16.4771 25.8022H34.2574C34.6291 23.5831 36.6332 21.881 39.0511 21.881Z" fill="white"/>
<path d="M50.5609 23.8662L50.6413 24.1552L50.8609 24.0941V23.8662H50.5609ZM50.5604 23.8663L50.48 23.5773L50.5025 24.1606L50.5604 23.8663ZM50.5604 27.2475L50.5025 26.9532L50.2604 27.0008V27.2475H50.5604ZM50.5604 27.2724V27.5724H50.8604V27.2724H50.5604ZM43.8444 27.2724V26.9724H43.5904L43.5485 27.2228L43.8444 27.2724ZM34.2589 27.2724L34.5548 27.2231L34.5131 26.9724H34.2589V27.2724ZM16.4766 27.2724V26.9724H16.2227L16.1808 27.2228L16.4766 27.2724ZM6.88918 27.2724L7.18509 27.2231L7.1433 26.9724H6.88918V27.2724ZM2.98666 27.2724V26.9724L2.98591 26.9724L2.98666 27.2724ZM2.22134 27.2743V27.5743L2.22209 27.5743L2.22134 27.2743ZM2.98666 23.8414V24.1414H3.28666V23.8414H2.98666ZM9.38301 6.68623V6.98623L9.3832 6.98623L9.38301 6.68623ZM15.2857 6.6824L15.2859 6.9824L15.5857 6.98221V6.6824H15.2857ZM15.2857 4.72755H15.5857V4.4537L15.313 4.42879L15.2857 4.72755ZM2.18763 1.56649L2.39519 1.34987L2.39426 1.349L2.18763 1.56649ZM2.04976 0.706822L1.7869 0.562235L1.78649 0.562985L2.04976 0.706822ZM2.86506 0.323894L2.81387 0.619495L2.81435 0.619578L2.86506 0.323894ZM27.3412 1.30417L27.3404 1.00417L27.34 1.00418L27.3412 1.30417ZM28.4123 1.30075L28.4133 1.60075L28.4134 1.60075L28.4123 1.30075ZM28.4125 1.30075L28.4116 1.00075L28.4114 1.00075L28.4125 1.30075ZM28.4127 1.30075L28.4136 1.60075L28.4137 1.60075L28.4127 1.30075ZM28.4128 1.30075L28.4118 1.00075L28.4118 1.00075L28.4128 1.30075ZM31.1218 1.2946L31.1219 0.9946H31.1218V1.2946ZM37.708 1.29651L37.7079 1.59651H37.708V1.29651ZM48.4744 1.10122L48.4629 0.801428L48.4604 0.801548L48.4744 1.10122ZM49.2497 1.63347L49.5371 1.54752V1.54751L49.2497 1.63347ZM48.888 2.47785L49.0299 2.74216L49.0301 2.74206L48.888 2.47785ZM46.9777 3.24753L46.8879 2.96126L46.6777 3.02718V3.24753H46.9777ZM45.9926 6.26884L46.123 6.53901L46.1232 6.5389L45.9926 6.26884ZM44.1203 6.11567L44.2944 5.87136L44.294 5.87114L44.1203 6.11567ZM41.6445 4.35614L41.8183 4.11161L41.7211 4.04253L41.603 4.05902L41.6445 4.35614ZM30.099 5.17562L30.0923 4.87569L29.799 4.8822V5.17562H30.099ZM30.099 6.68816H29.799V6.98827L30.0991 6.98816L30.099 6.68816ZM35.4681 6.68625V6.38625H35.468L35.4681 6.68625ZM44.5782 9.62713L44.7579 9.38691L44.7547 9.38456L44.5782 9.62713ZM44.788 9.78413L44.9686 9.54459L44.9677 9.54393L44.788 9.78413ZM49.5557 15.9664L49.2774 16.0782L49.2829 16.092L49.2898 16.1052L49.5557 15.9664ZM49.5617 15.9778L49.8374 15.8594L49.8329 15.849L49.8277 15.839L49.5617 15.9778ZM49.5757 16.0104L49.8574 15.9071L49.8546 15.8995L49.8514 15.892L49.5757 16.0104ZM49.6199 16.1223L49.8976 16.0087L49.8975 16.0087L49.6199 16.1223ZM49.6577 16.2172L49.3769 16.323L49.3793 16.3291L49.6577 16.2172ZM49.9634 16.9773V17.2773H50.4074L50.2417 16.8653L49.9634 16.9773ZM49.9194 16.9773V16.6773H49.5105L49.6333 17.0673L49.9194 16.9773ZM47.6777 15.5086V15.8086H48.1657L47.9454 15.3732L47.6777 15.5086ZM44.0429 11.0973L44.2281 10.8613L44.1466 10.7973H44.0429V11.0973ZM45.3035 4.95527L45.1739 4.68472L45.1739 4.68472L45.3035 4.95527ZM45.4454 4.73509L45.1454 4.73508V4.73509H45.4454ZM45.0358 4.9323L45.2099 4.68803L45.2094 4.68765L45.0358 4.9323ZM43.7489 4.019L43.6946 3.72396L42.996 3.85252L43.5753 4.26365L43.7489 4.019ZM45.4454 3.66479L45.7454 3.6648L45.7454 3.28578L45.3765 3.37281L45.4454 3.66479ZM22.9457 2.78605L22.9194 2.4872L22.9457 3.08605V2.78605ZM26.3555 2.77934L26.3546 2.47934H26.3546L26.3555 2.77934ZM22.9461 2.78601L22.9724 3.08485L22.9461 2.48601V2.78601ZM9.21424 2.47009L9.23278 2.17067L9.16084 2.7653L9.21424 2.47009ZM42.3684 2.75158L42.4145 3.04802L42.3651 2.4516L42.3684 2.75158ZM37.7105 2.77265L37.7103 3.07265H37.7105V2.77265ZM31.1224 2.7669L31.1226 2.4669H31.1224V2.7669ZM27.3477 2.77647L27.3486 3.07647L27.3491 3.07647L27.3477 2.77647ZM16.821 4.85962L16.8438 4.56049L16.521 4.5358V4.85962H16.821ZM28.5645 5.20042H28.8645V4.89659L28.5606 4.90045L28.5645 5.20042ZM28.5645 6.68616V6.98616H28.8645V6.68616H28.5645ZM16.821 6.68616H16.521V6.98616H16.821V6.68616ZM43.8448 25.8022L43.5489 25.8514L43.5907 26.1022H43.8448V25.8022ZM50.0492 25.8022V26.1022H50.3492V25.8022H50.0492ZM50.0492 25.312H50.3492V25.012H50.0492V25.312ZM45.4453 25.312H45.1453V25.612H45.4453V25.312ZM45.4453 23.8416V23.5416H45.1453V23.8416H45.4453ZM49.0261 23.8416V24.1416H49.3261V23.8416H49.0261ZM48.3068 16.9795L48.5896 16.8794L48.5189 16.6795H48.3068V16.9795ZM41.7227 9.6273V9.9273L41.8569 9.35897L41.7227 9.6273ZM4.52181 15.5091H4.22181V15.8091H4.52181V15.5091ZM12.2308 15.5091H12.5308V15.2091H12.2308V15.5091ZM12.2308 16.9795V17.2795H12.5308V16.9795H12.2308ZM4.52181 16.9795V16.6795H4.22181V16.9795H4.52181ZM4.52181 23.8416H4.22181V24.1416H4.52181V23.8416ZM5.5449 23.8416H5.8449V23.5416H5.5449V23.8416ZM5.5449 25.312V25.612H5.8449V25.312H5.5449ZM2.47564 25.312V25.012H2.17564V25.312H2.47564ZM2.47564 25.8022H2.17564V26.1022H2.47564V25.8022ZM6.88969 25.8022V26.1022H7.14362L7.18557 25.8517L6.88969 25.8022ZM16.4771 25.8022L16.1812 25.8514L16.223 26.1022H16.4771V25.8022ZM34.2574 25.8022V26.1022H34.5113L34.5533 25.8517L34.2574 25.8022ZM50.8609 23.8662V21.1454H50.2609V23.8662H50.8609ZM50.6408 24.1553L50.6413 24.1552L50.4804 23.5771L50.48 23.5773L50.6408 24.1553ZM51.8835 25.0667C51.8835 24.3218 51.3304 23.7121 50.6184 23.5719L50.5025 24.1606C50.9573 24.2502 51.2835 24.6323 51.2835 25.0667H51.8835ZM51.8835 26.0451V25.0667H51.2835V26.0451H51.8835ZM50.6184 27.5419C51.3304 27.4017 51.8835 26.7939 51.8835 26.0451H51.2835C51.2835 26.4834 50.9573 26.8636 50.5025 26.9532L50.6184 27.5419ZM50.8604 27.2724V27.2475H50.2604V27.2724H50.8604ZM43.8444 27.5724H50.5604V26.9724H43.8444V27.5724ZM39.0506 31.4936C41.6091 31.4936 43.7434 29.6914 44.1402 27.322L43.5485 27.2228C43.202 29.2915 41.3279 30.8936 39.0506 30.8936V31.4936ZM33.963 27.3217C34.3577 29.6914 36.4922 31.4936 39.0506 31.4936V30.8936C36.7733 30.8936 34.8994 29.2915 34.5548 27.2231L33.963 27.3217ZM16.4766 27.5724H34.2589V26.9724H16.4766V27.5724ZM11.6829 31.4936C14.2414 31.4936 16.3756 29.6914 16.7725 27.322L16.1808 27.2228C15.8342 29.2915 13.9602 30.8936 11.6829 30.8936V31.4936ZM6.59326 27.3217C6.98805 29.6895 9.12455 31.4936 11.6829 31.4936V30.8936C9.40554 30.8936 7.52965 29.2896 7.18509 27.2231L6.59326 27.3217ZM2.98666 27.5724H6.88918V26.9724H2.98666V27.5724ZM2.22209 27.5743L2.98741 27.5724L2.98591 26.9724L2.22059 26.9743L2.22209 27.5743ZM0.640491 26.047C0.640491 26.9002 1.3602 27.5743 2.22134 27.5743V26.9743C1.66777 26.9743 1.24049 26.5456 1.24049 26.047H0.640491ZM0.640491 25.0687V26.047H1.24049V25.0687H0.640491ZM2.22134 23.5414C1.36281 23.5414 0.640491 24.2129 0.640491 25.0687H1.24049C1.24049 24.5688 1.66914 24.1414 2.22134 24.1414V23.5414ZM2.98666 23.5414H2.22134V24.1414H2.98666V23.5414ZM2.68666 12.815V23.8414H3.28666V12.815H2.68666ZM9.38301 6.38623C5.70269 6.38623 2.68666 9.25802 2.68666 12.815H3.28666C3.28666 9.6133 6.00964 6.98623 9.38301 6.98623V6.38623ZM15.2855 6.3824L9.38281 6.38623L9.3832 6.98623L15.2859 6.9824L15.2855 6.3824ZM14.9857 4.72755V6.6824H15.5857V4.72755H14.9857ZM1.98008 1.7831C2.42046 2.20507 3.09149 2.57561 3.92168 2.90471C4.75686 3.2358 5.77625 3.53382 6.93343 3.79983C9.24807 4.33192 12.138 4.74132 15.2584 5.0263L15.313 4.42879C12.2074 4.14516 9.34659 3.73892 7.06785 3.21509C5.92833 2.95313 4.94037 2.66312 4.14279 2.34694C3.34022 2.02878 2.75309 1.69281 2.39519 1.34988L1.98008 1.7831ZM1.78649 0.562985C1.56455 0.96921 1.64593 1.46565 1.981 1.78398L2.39426 1.349C2.25377 1.21552 2.22324 1.01499 2.31303 0.850658L1.78649 0.562985ZM2.91624 0.0282935C2.46172 -0.0504143 2.00612 0.163691 1.7869 0.562236L2.31262 0.851407C2.40513 0.683214 2.60498 0.583322 2.81387 0.619495L2.91624 0.0282935ZM22.9431 1.01375C15.8675 1.01375 7.97723 0.89614 2.91576 0.0282099L2.81435 0.619578C7.93566 1.49777 15.8797 1.61375 22.9431 1.61375V1.01375ZM27.34 1.00418C25.9216 1.00992 24.4453 1.01375 22.9431 1.01375V1.61375C24.4463 1.61375 25.9234 1.60992 27.3425 1.60417L27.34 1.00418ZM28.4113 1.00075C28.0583 1.00193 27.7012 1.00313 27.3404 1.00417L27.3421 1.60417C27.7031 1.60312 28.0603 1.60193 28.4133 1.60075L28.4113 1.00075ZM28.4114 1.00075L28.4112 1.00075L28.4134 1.60075L28.4137 1.60075L28.4114 1.00075ZM28.4117 1.00075L28.4116 1.00075L28.4135 1.60075L28.4136 1.60075L28.4117 1.00075ZM28.4118 1.00075L28.4116 1.00075L28.4137 1.60075L28.4139 1.60075L28.4118 1.00075ZM31.1218 0.9946C30.2526 0.9946 29.3465 0.997628 28.4118 1.00075L28.4138 1.60075C29.3487 1.59762 30.2537 1.5946 31.1218 1.5946V0.9946ZM37.7081 0.996514L31.1219 0.9946L31.1218 1.5946L37.7079 1.59651L37.7081 0.996514ZM37.71 0.996514H37.708V1.59651H37.71V0.996514ZM48.4604 0.801548C44.9066 0.967793 42.1665 0.996514 37.71 0.996514V1.59651C42.1696 1.59651 44.9206 1.56779 48.4884 1.40089L48.4604 0.801548ZM49.5371 1.54751C49.3967 1.07818 48.9397 0.783232 48.4629 0.801439L48.4858 1.401C48.7124 1.39235 48.9068 1.53395 48.9623 1.71943L49.5371 1.54751ZM49.0301 2.74206C49.4601 2.51079 49.6774 2.01683 49.5371 1.54752L48.9623 1.71942C49.0177 1.90495 48.9353 2.11176 48.7459 2.21363L49.0301 2.74206ZM47.0674 3.53379C47.8363 3.29275 48.4946 3.02954 49.0299 2.74216L48.7461 2.21353C48.2543 2.47757 47.6337 2.72747 46.8879 2.96126L47.0674 3.53379ZM47.2777 4.73522V3.24753H46.6777V4.73522H47.2777ZM46.1232 6.5389C46.8395 6.19237 47.2777 5.51783 47.2777 4.73522H46.6777C46.6777 5.27757 46.3804 5.74794 45.8619 5.99878L46.1232 6.5389ZM45.1813 6.75839C45.5017 6.75839 45.8219 6.68437 46.123 6.53901L45.8621 5.99867C45.6397 6.10605 45.4084 6.15839 45.1813 6.15839V6.75839ZM43.9462 6.35998C44.3167 6.62405 44.7473 6.75839 45.1813 6.75839V6.15839C44.8721 6.15839 44.5632 6.06297 44.2944 5.87136L43.9462 6.35998ZM41.4707 4.60067L43.9465 6.3602L44.294 5.87114L41.8183 4.11161L41.4707 4.60067ZM30.1056 5.47554C34.6011 5.37582 38.5178 5.09573 41.686 4.65326L41.603 4.05902C38.4648 4.49731 34.5727 4.7763 30.0923 4.87569L30.1056 5.47554ZM30.399 6.68816V5.17562H29.799V6.68816H30.399ZM35.468 6.38625L30.0988 6.38816L30.0991 6.98816L35.4682 6.98625L35.468 6.38625ZM44.7547 9.38456C42.1709 7.50432 38.9542 6.38625 35.4681 6.38625V6.98625C38.8244 6.98625 41.918 8.06236 44.4017 9.8697L44.7547 9.38456ZM44.9677 9.54393L44.7579 9.38693L44.3985 9.86733L44.6083 10.0243L44.9677 9.54393ZM49.8341 15.8545C48.8279 13.3493 47.1306 11.1748 44.9686 9.54459L44.6074 10.0237C46.6856 11.5906 48.3134 13.6781 49.2774 16.0782L49.8341 15.8545ZM49.8277 15.839L49.8217 15.8275L49.2898 16.1052L49.2958 16.1167L49.8277 15.839ZM49.8514 15.892L49.8374 15.8594L49.2861 16.0963L49.3001 16.1288L49.8514 15.892ZM49.8975 16.0087C49.8822 15.9712 49.8692 15.9392 49.8574 15.9071L49.2941 16.1137C49.3102 16.1578 49.3275 16.1998 49.3422 16.2358L49.8975 16.0087ZM49.9384 16.1114C49.9247 16.075 49.9102 16.0397 49.8976 16.0087L49.3422 16.2358C49.3554 16.2681 49.3666 16.2957 49.3769 16.323L49.9384 16.1114ZM50.2417 16.8653L49.936 16.1052L49.3793 16.3291L49.6851 17.0892L50.2417 16.8653ZM49.9194 17.2773H49.9634V16.6773H49.9194V17.2773ZM50.8609 21.1454C50.8609 19.6666 50.6301 18.2367 50.2056 16.8873L49.6333 17.0673C50.04 18.3601 50.2609 19.7294 50.2609 21.1454H50.8609ZM47.6774 15.2086H36.4935V15.8086H47.6774V15.2086ZM47.6777 15.2086H47.6774V15.8086H47.6777V15.2086ZM43.8577 11.3333C45.3604 12.5129 46.5709 13.9857 47.41 15.6441L47.9454 15.3732C47.0659 13.635 45.7986 12.0941 44.2281 10.8613L43.8577 11.3333ZM36.4935 11.3973H44.0429V10.7973H36.4935V11.3973ZM36.5378 11.3424C36.5378 11.3673 36.5268 11.3818 36.5215 11.3869C36.5161 11.392 36.507 11.3973 36.4935 11.3973V10.7973C36.2022 10.7973 35.9378 11.0326 35.9378 11.3424H36.5378ZM36.5378 15.2635V11.3424H35.9378V15.2635H36.5378ZM36.4935 15.2086C36.507 15.2086 36.5161 15.2139 36.5215 15.219C36.5268 15.2241 36.5378 15.2386 36.5378 15.2635H35.9378C35.9378 15.5733 36.2022 15.8086 36.4935 15.8086V15.2086ZM45.4332 5.22582C45.5205 5.18398 45.6035 5.1207 45.663 5.02793C45.7228 4.93464 45.7454 4.83244 45.7454 4.73509H45.1454C45.1454 4.73783 45.1451 4.73514 45.1468 4.72864C45.1487 4.72179 45.1521 4.71305 45.1579 4.70407C45.1704 4.68454 45.1825 4.68061 45.1739 4.68472L45.4332 5.22582ZM44.8616 5.17656C44.939 5.23176 45.0322 5.27353 45.14 5.28287C45.2479 5.29221 45.347 5.2671 45.4332 5.22582L45.1739 4.68472C45.1686 4.68729 45.1681 4.68684 45.1719 4.68604C45.1761 4.68516 45.1831 4.68436 45.1918 4.68511C45.2005 4.68586 45.2073 4.68785 45.2114 4.68948C45.2151 4.69096 45.2146 4.69138 45.2099 4.68803L44.8616 5.17656ZM43.5753 4.26365L44.8621 5.17694L45.2094 4.68765L43.9226 3.77436L43.5753 4.26365ZM45.3765 3.37281C44.8542 3.49606 44.2935 3.61376 43.6946 3.72396L43.8032 4.31405C44.4113 4.20216 44.9817 4.08244 45.5143 3.95678L45.3765 3.37281ZM45.7454 4.73509L45.7454 3.6648L45.1454 3.66479L45.1454 4.73508L45.7454 4.73509ZM22.9457 3.08605C24.1036 3.08605 25.2448 3.08265 26.3563 3.07934L26.3546 2.47934C25.2429 2.48265 24.1025 2.48605 22.9457 2.48605V3.08605ZM22.9198 2.48716L22.9194 2.4872L22.9719 3.08489L22.9724 3.08485L22.9198 2.48716ZM9.1957 2.76952C13.5037 3.03626 18.4033 3.08601 22.9461 3.08601V2.48601C18.405 2.48601 13.5211 2.43619 9.23278 2.17067L9.1957 2.76952ZM26.263 3.44526C19.2925 3.44526 13.374 2.91769 9.26764 2.17488L9.16084 2.7653C13.3108 3.51598 19.2662 4.04526 26.263 4.04526V3.44526ZM42.3223 2.45515C38.2685 3.08571 32.6719 3.44526 26.263 3.44526V4.04526C32.6897 4.04526 38.3196 3.68498 42.4145 3.04802L42.3223 2.45515ZM37.7125 3.07265C39.4795 3.07265 40.9814 3.0669 42.3717 3.05157L42.3651 2.4516C40.9778 2.4669 39.4784 2.47265 37.7125 2.47265V3.07265ZM37.7105 3.07265H37.7125V2.47265H37.7105V3.07265ZM31.1221 3.0669L37.7103 3.07265L37.7108 2.47265L31.1226 2.4669L31.1221 3.0669ZM27.3491 3.07647C28.6636 3.07073 29.9281 3.0669 31.1224 3.0669V2.4669C29.9268 2.4669 28.6615 2.47073 27.3464 2.47648L27.3491 3.07647ZM26.3563 3.07934L27.3486 3.07647L27.3469 2.47648L26.3546 2.47934L26.3563 3.07934ZM26.2625 4.91574C23.1566 4.91574 19.9152 4.79539 16.8438 4.56049L16.7981 5.15875C19.8852 5.39485 23.1419 5.51574 26.2625 5.51574V4.91574ZM28.5606 4.90045C27.8084 4.91001 27.0423 4.91574 26.2625 4.91574V5.51574C27.0453 5.51574 27.8139 5.50999 28.5683 5.5004L28.5606 4.90045ZM28.8645 6.68616V5.20042H28.2645V6.68616H28.8645ZM16.821 6.98616H28.5645V6.38616H16.821V6.98616ZM16.521 4.85962V6.68616H17.121V4.85962H16.521ZM11.6835 29.4234C10.0027 29.4234 8.65851 28.1174 8.65851 26.5374H8.05851C8.05851 28.4727 9.69573 30.0234 11.6835 30.0234V29.4234ZM14.7086 26.5374C14.7086 28.1174 13.3644 29.4234 11.6835 29.4234V30.0234C13.6714 30.0234 15.3086 28.4727 15.3086 26.5374H14.7086ZM11.6835 23.6514C13.3644 23.6514 14.7086 24.9574 14.7086 26.5374H15.3086C15.3086 24.6021 13.6714 23.0514 11.6835 23.0514V23.6514ZM8.65851 26.5374C8.65851 24.9574 10.0027 23.6514 11.6835 23.6514V23.0514C9.69573 23.0514 8.05851 24.6021 8.05851 26.5374H8.65851ZM35.4261 26.5374C35.4261 28.4727 37.0633 30.0234 39.0511 30.0234V29.4234C37.3703 29.4234 36.0261 28.1174 36.0261 26.5374H35.4261ZM39.0511 23.0514C37.0633 23.0514 35.4261 24.6021 35.4261 26.5374H36.0261C36.0261 24.9574 37.3703 23.6514 39.0511 23.6514V23.0514ZM42.6762 26.5374C42.6762 24.6021 41.0389 23.0514 39.0511 23.0514V23.6514C40.732 23.6514 42.0762 24.9574 42.0762 26.5374H42.6762ZM39.0511 30.0234C41.0389 30.0234 42.6762 28.4727 42.6762 26.5374H42.0762C42.0762 28.1174 40.732 29.4234 39.0511 29.4234V30.0234ZM44.1408 25.7529C43.746 23.383 41.6093 21.581 39.0511 21.581V22.181C41.3286 22.181 43.2044 23.7832 43.5489 25.8514L44.1408 25.7529ZM50.0492 25.5022H43.8448V26.1022H50.0492V25.5022ZM49.7492 25.312V25.8022H50.3492V25.312H49.7492ZM45.4453 25.612H50.0492V25.012H45.4453V25.612ZM45.1453 23.8416V25.312H45.7453V23.8416H45.1453ZM49.0261 23.5416H45.4453V24.1416H49.0261V23.5416ZM48.7262 21.1477V23.8416H49.3261V21.1477H48.7262ZM48.024 17.0796C48.4767 18.3583 48.7262 19.7241 48.7262 21.1477H49.3261C49.3261 19.6533 49.0641 18.2199 48.5896 16.8794L48.024 17.0796ZM36.4932 17.2795H48.3068V16.6795H36.4932V17.2795ZM34.4028 15.264C34.4028 16.3875 35.3526 17.2795 36.4932 17.2795V16.6795C35.6596 16.6795 35.0028 16.0322 35.0028 15.264H34.4028ZM34.4028 11.3428V15.264H35.0028V11.3428H34.4028ZM36.4932 9.3273C35.3526 9.3273 34.4028 10.2193 34.4028 11.3428H35.0028C35.0028 10.5746 35.6596 9.9273 36.4932 9.9273V9.3273ZM41.7227 9.3273H36.4932V9.9273H41.7227V9.3273ZM35.4681 8.45686C37.6743 8.45686 39.7566 8.97964 41.5886 9.89563L41.8569 9.35897C39.9438 8.4024 37.7698 7.85686 35.4681 7.85686V8.45686ZM9.38347 8.45686H35.4681V7.85686H9.38347V8.45686ZM4.82181 12.8152C4.82181 10.4252 6.85541 8.45686 9.38347 8.45686V7.85686C6.5483 7.85686 4.22181 10.0701 4.22181 12.8152H4.82181ZM4.82181 15.5091V12.8152H4.22181V15.5091H4.82181ZM12.2308 15.2091H4.52181V15.8091H12.2308V15.2091ZM12.5308 16.9795V15.5091H11.9308V16.9795H12.5308ZM4.52181 17.2795H12.2308V16.6795H4.52181V17.2795ZM4.82181 23.8416V16.9795H4.22181V23.8416H4.82181ZM5.5449 23.5416H4.52181V24.1416H5.5449V23.5416ZM5.8449 25.312V23.8416H5.2449V25.312H5.8449ZM2.47564 25.612H5.5449V25.012H2.47564V25.612ZM2.77564 25.8022V25.312H2.17564V25.8022H2.77564ZM6.88969 25.5022H2.47564V26.1022H6.88969V25.5022ZM11.6834 21.581C9.12496 21.581 6.99069 23.3832 6.59382 25.7526L7.18557 25.8517C7.53208 23.783 9.40615 22.181 11.6834 22.181V21.581ZM16.7731 25.7529C16.3783 23.383 14.2417 21.581 11.6834 21.581V22.181C13.9609 22.181 15.8367 23.7832 16.1812 25.8514L16.7731 25.7529ZM34.2574 25.5022H16.4771V26.1022H34.2574V25.5022ZM39.0511 21.581C36.4926 21.581 34.3584 23.3832 33.9615 25.7526L34.5533 25.8517C34.8998 23.783 36.7738 22.181 39.0511 22.181V21.581Z" fill="#222532"/>
<path fill-rule="evenodd" clip-rule="evenodd" d="M23.9606 11.3425V15.2636C23.9606 16.2095 23.1573 16.9792 22.1702 16.9792H17.0547C16.0676 16.9792 15.2643 16.2095 15.2643 15.2636V11.3425C15.2643 10.3966 16.0676 9.62695 17.0547 9.62695H22.1702C23.1573 9.62695 23.9606 10.3966 23.9606 11.3425ZM16.799 11.3425V15.2637C16.799 15.3977 16.9169 15.5087 17.0547 15.5087H22.1702C22.3081 15.5087 22.4259 15.3958 22.4259 15.2637V11.3425C22.4259 11.2104 22.3081 11.0974 22.1702 11.0974H17.0547C16.9169 11.0974 16.799 11.2104 16.799 11.3425Z" fill="white"/>
<path d="M24.2606 15.2636V11.3425H23.6606V15.2636H24.2606ZM22.1702 17.2792C23.3108 17.2792 24.2606 16.3871 24.2606 15.2636H23.6606C23.6606 16.0318 23.0038 16.6792 22.1702 16.6792V17.2792ZM17.0547 17.2792H22.1702V16.6792H17.0547V17.2792ZM14.9643 15.2636C14.9643 16.3871 15.9141 17.2792 17.0547 17.2792V16.6792C16.2211 16.6792 15.5643 16.0318 15.5643 15.2636H14.9643ZM14.9643 11.3425V15.2636H15.5643V11.3425H14.9643ZM17.0547 9.32695C15.9141 9.32695 14.9643 10.219 14.9643 11.3425H15.5643C15.5643 10.5743 16.2211 9.92695 17.0547 9.92695V9.32695ZM22.1702 9.32695H17.0547V9.92695H22.1702V9.32695ZM24.2606 11.3425C24.2606 10.219 23.3108 9.32695 22.1702 9.32695V9.92695C23.0038 9.92695 23.6606 10.5743 23.6606 11.3425H24.2606ZM17.099 15.2637V11.3425H16.499V15.2637H17.099ZM17.0547 15.2087C17.0667 15.2087 17.0759 15.2134 17.0821 15.2193C17.0886 15.2255 17.099 15.2404 17.099 15.2637H16.499C16.499 15.5768 16.7649 15.8087 17.0547 15.8087V15.2087ZM22.1702 15.2087H17.0547V15.8087H22.1702V15.2087ZM22.1259 15.2637C22.1259 15.2387 22.1369 15.2242 22.1422 15.2191C22.1476 15.214 22.1567 15.2087 22.1702 15.2087V15.8087C22.4615 15.8087 22.7259 15.5734 22.7259 15.2637H22.1259ZM22.1259 11.3425V15.2637H22.7259V11.3425H22.1259ZM22.1702 11.3974C22.1567 11.3974 22.1476 11.3922 22.1422 11.387C22.1369 11.3819 22.1259 11.3675 22.1259 11.3425H22.7259C22.7259 11.0327 22.4615 10.7974 22.1702 10.7974V11.3974ZM17.0547 11.3974H22.1702V10.7974H17.0547V11.3974ZM17.099 11.3425C17.099 11.3675 17.088 11.3819 17.0827 11.387C17.0773 11.3922 17.0682 11.3974 17.0547 11.3974V10.7974C16.7634 10.7974 16.499 11.0327 16.499 11.3425H17.099Z" fill="#222532"/>
<path fill-rule="evenodd" clip-rule="evenodd" d="M26.7741 9.62695H31.8895C32.8766 9.62695 33.6799 10.3966 33.6799 11.3425V15.2636C33.6799 16.2095 32.8766 16.9792 31.8895 16.9792H26.7741C25.7869 16.9792 24.9837 16.2095 24.9837 15.2636V11.3425C24.9837 10.3966 25.7869 9.62695 26.7741 9.62695ZM31.8895 15.5087C32.0274 15.5087 32.1453 15.3958 32.1453 15.2637V11.3425C32.1453 11.2104 32.0274 11.0974 31.8895 11.0974H26.7741C26.6362 11.0974 26.5183 11.2104 26.5183 11.3425V15.2637C26.5183 15.3958 26.6362 15.5087 26.7741 15.5087H31.8895Z" fill="white"/>
<path d="M31.8895 9.32695H26.7741V9.92695H31.8895V9.32695ZM33.9799 11.3425C33.9799 10.219 33.0301 9.32695 31.8895 9.32695V9.92695C32.7232 9.92695 33.3799 10.5743 33.3799 11.3425H33.9799ZM33.9799 15.2636V11.3425H33.3799V15.2636H33.9799ZM31.8895 17.2792C33.0301 17.2792 33.9799 16.3871 33.9799 15.2636H33.3799C33.3799 16.0318 32.7232 16.6792 31.8895 16.6792V17.2792ZM26.7741 17.2792H31.8895V16.6792H26.7741V17.2792ZM24.6837 15.2636C24.6837 16.3871 25.6335 17.2792 26.7741 17.2792V16.6792C25.9404 16.6792 25.2837 16.0318 25.2837 15.2636H24.6837ZM24.6837 11.3425V15.2636H25.2837V11.3425H24.6837ZM26.7741 9.32695C25.6335 9.32695 24.6837 10.219 24.6837 11.3425H25.2837C25.2837 10.5743 25.9404 9.92695 26.7741 9.92695V9.32695ZM31.8453 15.2637C31.8453 15.2387 31.8562 15.2242 31.8615 15.2191C31.8669 15.214 31.876 15.2087 31.8895 15.2087V15.8087C32.1809 15.8087 32.4453 15.5734 32.4453 15.2637H31.8453ZM31.8453 11.3425V15.2637H32.4453V11.3425H31.8453ZM31.8895 11.3974C31.876 11.3974 31.8669 11.3922 31.8615 11.387C31.8562 11.3819 31.8453 11.3675 31.8453 11.3425H32.4453C32.4453 11.0327 32.1809 10.7974 31.8895 10.7974V11.3974ZM26.7741 11.3974H31.8895V10.7974H26.7741V11.3974ZM26.8183 11.3425C26.8183 11.3675 26.8074 11.3819 26.802 11.387C26.7967 11.3922 26.7876 11.3974 26.7741 11.3974V10.7974C26.4827 10.7974 26.2183 11.0327 26.2183 11.3425H26.8183ZM26.8183 15.2637V11.3425H26.2183V15.2637H26.8183ZM26.7741 15.2087C26.7876 15.2087 26.7967 15.214 26.802 15.2191C26.8074 15.2242 26.8183 15.2387 26.8183 15.2637H26.2183C26.2183 15.5734 26.4827 15.8087 26.7741 15.8087V15.2087ZM31.8895 15.2087H26.7741V15.8087H31.8895V15.2087Z" fill="#222532"/>
<path fill-rule="evenodd" clip-rule="evenodd" d="M37.0049 26.537C37.0049 25.4552 37.9221 24.5764 39.0511 24.5764C40.1801 24.5764 41.0973 25.4572 41.0973 26.537C41.0973 27.6188 40.1801 28.4976 39.0511 28.4976C37.9221 28.4976 37.0049 27.6188 37.0049 26.537ZM38.5396 26.537C38.5396 26.807 38.7694 27.0272 39.0511 27.0272C39.3329 27.0272 39.5627 26.807 39.5627 26.537C39.5627 26.2671 39.3329 26.0469 39.0511 26.0469C38.7694 26.0469 38.5396 26.2671 38.5396 26.537Z" fill="white"/>
<path d="M39.0511 24.2764C37.7687 24.2764 36.7049 25.2776 36.7049 26.537H37.3049C37.3049 25.6329 38.0756 24.8764 39.0511 24.8764V24.2764ZM41.3973 26.537C41.3973 25.2797 40.3338 24.2764 39.0511 24.2764V24.8764C40.0264 24.8764 40.7973 25.6346 40.7973 26.537H41.3973ZM39.0511 28.7976C40.3336 28.7976 41.3973 27.7964 41.3973 26.537H40.7973C40.7973 27.4411 40.0266 28.1976 39.0511 28.1976V28.7976ZM36.7049 26.537C36.7049 27.7964 37.7687 28.7976 39.0511 28.7976V28.1976C38.0756 28.1976 37.3049 27.4411 37.3049 26.537H36.7049ZM39.0511 26.7272C38.9229 26.7272 38.8396 26.6293 38.8396 26.537H38.2396C38.2396 26.9846 38.6159 27.3272 39.0511 27.3272V26.7272ZM39.2627 26.537C39.2627 26.6293 39.1794 26.7272 39.0511 26.7272V27.3272C39.4864 27.3272 39.8627 26.9846 39.8627 26.537H39.2627ZM39.0511 26.3469C39.1794 26.3469 39.2627 26.4447 39.2627 26.537H39.8627C39.8627 26.0894 39.4864 25.7469 39.0511 25.7469V26.3469ZM38.8396 26.537C38.8396 26.4447 38.9229 26.3469 39.0511 26.3469V25.7469C38.6159 25.7469 38.2396 26.0894 38.2396 26.537H38.8396Z" fill="#222532"/>
<path fill-rule="evenodd" clip-rule="evenodd" d="M9.63736 26.537C9.63736 25.4552 10.5546 24.5764 11.6835 24.5764C12.8125 24.5764 13.7297 25.4572 13.7297 26.537C13.7297 27.6188 12.8125 28.4976 11.6835 28.4976C10.5546 28.4976 9.63736 27.6168 9.63736 26.537ZM11.172 26.537C11.172 26.807 11.4018 27.0272 11.6835 27.0272C11.9653 27.0272 12.1951 26.807 12.1951 26.537C12.1951 26.2671 11.9653 26.0469 11.6835 26.0469C11.4018 26.0469 11.172 26.2671 11.172 26.537Z" fill="white"/>
<path d="M11.6835 24.2764C10.4011 24.2764 9.33736 25.2776 9.33736 26.537H9.93736C9.93736 25.6329 10.708 24.8764 11.6835 24.8764V24.2764ZM14.0297 26.537C14.0297 25.2797 12.9662 24.2764 11.6835 24.2764V24.8764C12.6588 24.8764 13.4297 25.6346 13.4297 26.537H14.0297ZM11.6835 28.7976C12.966 28.7976 14.0297 27.7964 14.0297 26.537H13.4297C13.4297 27.4411 12.659 28.1976 11.6835 28.1976V28.7976ZM9.33736 26.537C9.33736 27.7943 10.4009 28.7976 11.6835 28.7976V28.1976C10.7082 28.1976 9.93736 27.4394 9.93736 26.537H9.33736ZM11.6835 26.7272C11.5553 26.7272 11.472 26.6293 11.472 26.537H10.872C10.872 26.9846 11.2483 27.3272 11.6835 27.3272V26.7272ZM11.8951 26.537C11.8951 26.6293 11.8118 26.7272 11.6835 26.7272V27.3272C12.1188 27.3272 12.4951 26.9846 12.4951 26.537H11.8951ZM11.6835 26.3469C11.8118 26.3469 11.8951 26.4447 11.8951 26.537H12.4951C12.4951 26.0894 12.1188 25.7469 11.6835 25.7469V26.3469ZM11.472 26.537C11.472 26.4447 11.5553 26.3469 11.6835 26.3469V25.7469C11.2483 25.7469 10.872 26.0894 10.872 26.537H11.472Z" fill="#222532"/>
<path d="M17.3105 23.8413H33.1684V25.3117H17.3105V23.8413Z" fill="white" stroke="#222532" stroke-width="0.6"/>
</svg>
