<svg width="1026" height="485" viewBox="0 0 1026 485" fill="none" xmlns="http://www.w3.org/2000/svg">
<g opacity="0.29827">
<path d="M1031.81 154.686L453.872 -360.736V-747.404L29.217 -770C25.9377 -762.527 4.92636 -740.989 8.20502 -728.985C12.1523 -714.627 32.0091 -719.216 37.7782 -709.978C44.5188 -699.092 32.9201 -654.84 29.4586 -642.072C22.8394 -617.886 7.71905 -598.292 3.34596 -574.107C-4.00202 -533.504 10.876 -536.74 39.0536 -511.378C86.542 -468.598 48.4662 -424.228 60.4294 -373.976C70.1456 -333.019 112.594 -311.895 128.14 -270.94C140.164 -239.398 156.681 -231.337 182.309 -208.27C181.701 -222.275 168.767 -263.584 193.057 -259.935C217.166 -256.346 207.875 -221.863 212.49 -207.446C216.376 -195.441 243.885 -171.433 221.052 -160.37C213.461 -156.721 191.843 -171.256 183.159 -175.14C189.292 -156.603 185.406 -137.362 195.122 -119.649C206.721 -98.5249 219.231 -106.645 234.595 -95.1701C250.444 -83.3423 248.744 -69.7493 241.7 -51.8605C234.352 -33.2065 226.761 -36.0898 238.421 -13.611C246.862 2.62973 261.192 23.2255 273.52 35.5826C280.686 42.7616 288.459 44.4094 295.625 53.5889C301.576 61.2386 299.269 71.2426 306.374 78.1269C318.519 89.9548 339.106 90.1313 348.701 105.607C359.389 122.848 347.244 135.853 378.7 134.264C380.34 168.747 387.08 199.993 386.716 234.475C404.266 241.242 432.625 233.181 451.025 229.591C469.304 253.481 492.926 236.888 513.817 249.893C522.926 255.542 521.043 269.665 526.57 274.607C537.925 284.729 546.305 278.374 560.395 281.904C570.84 284.494 578.916 291.908 588.875 294.615C598.288 297.145 613.773 291.202 620.757 299.263C629.137 308.914 615.109 326.567 627.74 334.334C638.246 340.807 653.306 325.39 663.509 327.626C675.411 330.274 709.539 360.462 717.92 370.405C727.454 381.762 737.049 402.947 742.453 417.54C750.894 440.371 749.74 451.552 767.168 468.264C778.281 478.915 767.714 479.68 785.811 482.798C797.652 484.858 813.319 476.561 825.283 475.266C850.182 472.618 875.323 477.208 899.856 472.677C922.69 468.44 944.49 461.497 967.931 458.26C988.213 455.436 1023.92 457.613 1041.9 448.257C1061.39 438.194 1063.15 415.421 1034.97 419.659C1032.73 405.124 1042.75 385.058 1031.57 374.997C1047.12 354.401 1052.77 339.867 1055.19 314.681C1056.29 303.618 1056.77 291.378 1062.42 282.081C1067.95 272.901 1083.49 267.428 1086.53 259.543C1091.21 247.303 1083.74 241.831 1078.03 235.005C1074.38 230.592 1064 232.71 1061.02 228.826C1055.5 221.706 1060.96 214.35 1057.93 207.171C1049.06 186.399 1038.49 178.22 1031.81 154.682C1032 158.624 1032.18 162.626 1031.93 166.51" stroke="white" stroke-width="2" stroke-linecap="round" stroke-linejoin="round"/>
</g>
<path d="M746.406 75.9234C737.64 99.0853 758.171 107.213 774.603 122.351C779.472 126.837 779.936 134.248 774.811 138.731C763.79 148.371 722.004 134.347 724.655 147.055C727.393 160.18 762.721 178.543 764.313 179.799C778.295 190.827 782.849 218.804 775.148 234.143C769.669 245.057 733.339 241.378 721.911 237.744C647.074 213.942 680.796 216.78 596.731 209.389C590.295 208.823 583.551 208.534 577.371 210.36C571.005 212.241 571.207 219.958 573.343 224.13C580.422 237.955 612.11 261.404 603.582 279.577C600.966 285.153 594.834 288.675 592.073 294.185C589.911 298.502 590.15 303.598 589.189 308.305" stroke="white" stroke-width="2"/>
<path fill-rule="evenodd" clip-rule="evenodd" d="M587.199 315.712C590.872 315.712 593.849 312.829 593.849 309.273C593.849 305.717 590.872 302.834 587.199 302.834C583.526 302.834 580.549 305.717 580.549 309.273C580.549 312.829 583.526 315.712 587.199 315.712Z" fill="#4AF6CD"/>
<path fill-rule="evenodd" clip-rule="evenodd" d="M676.719 352.364C678.414 352.364 679.788 351.034 679.788 349.393C679.788 347.751 678.414 346.421 676.719 346.421C675.024 346.421 673.65 347.751 673.65 349.393C673.65 351.034 675.024 352.364 676.719 352.364Z" fill="#4AF6CD"/>
<path fill-rule="evenodd" clip-rule="evenodd" d="M742.197 459.351C743.892 459.351 745.266 458.02 745.266 456.379C745.266 454.738 743.892 453.407 742.197 453.407C740.501 453.407 739.127 454.738 739.127 456.379C739.127 458.02 740.501 459.351 742.197 459.351Z" fill="#4AF6CD"/>
<path fill-rule="evenodd" clip-rule="evenodd" d="M373.885 218.632C375.58 218.632 376.955 217.301 376.955 215.66C376.955 214.019 375.58 212.688 373.885 212.688C372.19 212.688 370.816 214.019 370.816 215.66C370.816 217.301 372.19 218.632 373.885 218.632Z" fill="#4AF6CD"/>
<path fill-rule="evenodd" clip-rule="evenodd" d="M746.8 82.9177C750.473 82.9177 753.451 80.0349 753.451 76.4787C753.451 72.9226 750.473 70.0397 746.8 70.0397C743.128 70.0397 740.15 72.9226 740.15 76.4787C740.15 80.0349 743.128 82.9177 746.8 82.9177Z" fill="#4AF6CD"/>
<path d="M411.728 300.866L409.488 311.89H407.536L405.504 302.658L403.456 311.89H401.552L399.312 300.866H400.8L402.576 310.562L404.704 300.866H406.32L408.496 310.562L410.336 300.866H411.728ZM419.862 307.426C419.862 307.671 419.852 307.922 419.83 308.178H414.454C414.518 309.106 414.753 309.789 415.158 310.226C415.564 310.663 416.086 310.882 416.726 310.882C417.132 310.882 417.505 310.823 417.846 310.706C418.188 310.589 418.545 310.402 418.918 310.146L419.558 311.026C418.662 311.73 417.681 312.082 416.614 312.082C415.441 312.082 414.524 311.698 413.862 310.93C413.212 310.162 412.886 309.106 412.886 307.762C412.886 306.887 413.025 306.114 413.302 305.442C413.59 304.759 413.996 304.226 414.518 303.842C415.052 303.458 415.676 303.266 416.39 303.266C417.51 303.266 418.369 303.634 418.966 304.37C419.564 305.106 419.862 306.125 419.862 307.426ZM418.406 306.994C418.406 306.162 418.241 305.527 417.91 305.09C417.58 304.653 417.084 304.434 416.422 304.434C415.217 304.434 414.561 305.319 414.454 307.09H418.406V306.994ZM424.501 303.266C425.077 303.266 425.594 303.346 426.053 303.506C426.512 303.666 426.949 303.906 427.365 304.226L426.741 305.154C426.357 304.909 425.989 304.727 425.637 304.61C425.296 304.493 424.933 304.434 424.549 304.434C424.069 304.434 423.69 304.535 423.413 304.738C423.136 304.93 422.997 305.197 422.997 305.538C422.997 305.879 423.125 306.146 423.381 306.338C423.648 306.53 424.122 306.717 424.805 306.898C425.744 307.133 426.442 307.453 426.901 307.858C427.37 308.263 427.605 308.818 427.605 309.522C427.605 310.354 427.28 310.989 426.629 311.426C425.989 311.863 425.205 312.082 424.277 312.082C422.997 312.082 421.936 311.714 421.093 310.978L421.877 310.082C422.592 310.626 423.381 310.898 424.245 310.898C424.8 310.898 425.237 310.786 425.557 310.562C425.888 310.327 426.053 310.013 426.053 309.618C426.053 309.33 425.994 309.101 425.877 308.93C425.76 308.749 425.557 308.594 425.269 308.466C424.981 308.327 424.56 308.183 424.005 308.034C423.109 307.799 422.458 307.485 422.053 307.09C421.658 306.695 421.461 306.194 421.461 305.586C421.461 305.149 421.589 304.754 421.845 304.402C422.112 304.039 422.474 303.762 422.933 303.57C423.402 303.367 423.925 303.266 424.501 303.266ZM433.938 311.506C433.383 311.89 432.754 312.082 432.05 312.082C431.335 312.082 430.775 311.879 430.37 311.474C429.975 311.058 429.778 310.461 429.778 309.682V304.594H428.306V303.458H429.778V301.554L431.25 301.378V303.458H433.25L433.09 304.594H431.25V309.618C431.25 310.055 431.324 310.375 431.474 310.578C431.634 310.77 431.895 310.866 432.258 310.866C432.588 310.866 432.962 310.754 433.378 310.53L433.938 311.506ZM442.497 300.674C443.233 300.674 443.863 300.781 444.385 300.994C444.908 301.197 445.415 301.517 445.905 301.954L445.073 302.882C444.657 302.551 444.247 302.311 443.841 302.162C443.447 302.002 443.02 301.922 442.561 301.922C441.985 301.922 441.511 302.055 441.137 302.322C440.764 302.589 440.577 302.978 440.577 303.49C440.577 303.81 440.641 304.082 440.769 304.306C440.897 304.519 441.132 304.717 441.473 304.898C441.825 305.079 442.332 305.271 442.993 305.474C443.687 305.687 444.263 305.917 444.721 306.162C445.18 306.407 445.548 306.749 445.825 307.186C446.113 307.613 446.257 308.157 446.257 308.818C446.257 309.458 446.097 310.023 445.777 310.514C445.468 311.005 445.015 311.389 444.417 311.666C443.831 311.943 443.132 312.082 442.321 312.082C440.796 312.082 439.548 311.607 438.577 310.658L439.409 309.73C439.857 310.093 440.311 310.37 440.769 310.562C441.228 310.743 441.74 310.834 442.305 310.834C442.988 310.834 443.553 310.669 444.001 310.338C444.449 309.997 444.673 309.506 444.673 308.866C444.673 308.503 444.604 308.205 444.465 307.97C444.327 307.725 444.087 307.506 443.745 307.314C443.415 307.122 442.929 306.93 442.289 306.738C441.159 306.397 440.332 305.986 439.809 305.506C439.287 305.026 439.025 304.375 439.025 303.554C439.025 302.999 439.169 302.503 439.457 302.066C439.756 301.629 440.167 301.287 440.689 301.042C441.223 300.797 441.825 300.674 442.497 300.674ZM452.384 303.266C453.152 303.266 453.749 303.495 454.176 303.954C454.613 304.413 454.832 305.042 454.832 305.842V311.89H453.36V306.05C453.36 305.453 453.243 305.031 453.008 304.786C452.784 304.541 452.453 304.418 452.016 304.418C451.579 304.418 451.189 304.546 450.848 304.802C450.507 305.058 450.187 305.421 449.888 305.89V311.89H448.416V300.082L449.888 299.922V304.626C450.549 303.719 451.381 303.266 452.384 303.266ZM460.959 303.266C462.143 303.266 463.06 303.661 463.711 304.45C464.372 305.239 464.703 306.311 464.703 307.666C464.703 308.541 464.554 309.314 464.255 309.986C463.956 310.647 463.524 311.165 462.959 311.538C462.394 311.901 461.722 312.082 460.943 312.082C459.759 312.082 458.836 311.687 458.175 310.898C457.514 310.109 457.183 309.037 457.183 307.682C457.183 306.807 457.332 306.039 457.631 305.378C457.93 304.706 458.362 304.189 458.927 303.826C459.492 303.453 460.17 303.266 460.959 303.266ZM460.959 304.45C459.498 304.45 458.767 305.527 458.767 307.682C458.767 309.826 459.492 310.898 460.943 310.898C462.394 310.898 463.119 309.821 463.119 307.666C463.119 305.522 462.399 304.45 460.959 304.45ZM470.799 303.266C471.097 303.266 471.375 303.298 471.631 303.362L471.359 304.802C471.103 304.738 470.857 304.706 470.623 304.706C470.1 304.706 469.679 304.898 469.359 305.282C469.039 305.666 468.788 306.263 468.607 307.074V311.89H467.135V303.458H468.399L468.543 305.17C468.767 304.541 469.071 304.066 469.455 303.746C469.839 303.426 470.287 303.266 470.799 303.266ZM479.19 307.426C479.19 307.671 479.18 307.922 479.158 308.178H473.782C473.846 309.106 474.081 309.789 474.486 310.226C474.892 310.663 475.414 310.882 476.054 310.882C476.46 310.882 476.833 310.823 477.174 310.706C477.516 310.589 477.873 310.402 478.246 310.146L478.886 311.026C477.99 311.73 477.009 312.082 475.942 312.082C474.769 312.082 473.852 311.698 473.19 310.93C472.54 310.162 472.214 309.106 472.214 307.762C472.214 306.887 472.353 306.114 472.63 305.442C472.918 304.759 473.324 304.226 473.846 303.842C474.38 303.458 475.004 303.266 475.718 303.266C476.838 303.266 477.697 303.634 478.294 304.37C478.892 305.106 479.19 306.125 479.19 307.426ZM477.734 306.994C477.734 306.162 477.569 305.527 477.238 305.09C476.908 304.653 476.412 304.434 475.75 304.434C474.545 304.434 473.889 305.319 473.782 307.09H477.734V306.994ZM487.727 299.074V313.458H487.375V299.074H487.727ZM506.555 311.89H505.083L504.699 306.914C504.539 304.962 504.449 303.463 504.427 302.418L502.043 310.642H500.619L498.107 302.402C498.107 303.735 498.038 305.277 497.899 307.026L497.531 311.89H496.091L497.003 300.866H499.051L501.371 308.882L503.579 300.866H505.643L506.555 311.89ZM514.752 309.922C514.752 310.263 514.811 310.519 514.928 310.69C515.046 310.85 515.222 310.973 515.456 311.058L515.12 312.082C514.683 312.029 514.331 311.906 514.064 311.714C513.798 311.522 513.6 311.223 513.472 310.818C512.907 311.661 512.07 312.082 510.96 312.082C510.128 312.082 509.472 311.847 508.992 311.378C508.512 310.909 508.272 310.295 508.272 309.538C508.272 308.642 508.592 307.954 509.232 307.474C509.883 306.994 510.8 306.754 511.984 306.754H513.28V306.13C513.28 305.533 513.136 305.106 512.848 304.85C512.56 304.594 512.118 304.466 511.52 304.466C510.902 304.466 510.144 304.615 509.248 304.914L508.88 303.842C509.926 303.458 510.896 303.266 511.792 303.266C512.784 303.266 513.526 303.511 514.016 304.002C514.507 304.482 514.752 305.17 514.752 306.066V309.922ZM511.296 310.978C512.139 310.978 512.8 310.541 513.28 309.666V307.73H512.176C510.619 307.73 509.84 308.306 509.84 309.458C509.84 309.959 509.963 310.338 510.208 310.594C510.454 310.85 510.816 310.978 511.296 310.978ZM519.299 312.082C518.755 312.082 518.323 311.922 518.003 311.602C517.694 311.271 517.539 310.813 517.539 310.226V300.066L519.011 299.89V310.194C519.011 310.429 519.049 310.599 519.123 310.706C519.209 310.813 519.347 310.866 519.539 310.866C519.742 310.866 519.923 310.834 520.083 310.77L520.467 311.794C520.115 311.986 519.726 312.082 519.299 312.082ZM523.779 303.458V311.89H522.307V303.458H523.779ZM523.027 299.41C523.336 299.41 523.587 299.506 523.779 299.698C523.971 299.89 524.067 300.13 524.067 300.418C524.067 300.706 523.971 300.946 523.779 301.138C523.587 301.319 523.336 301.41 523.027 301.41C522.728 301.41 522.483 301.319 522.291 301.138C522.099 300.946 522.003 300.706 522.003 300.418C522.003 300.13 522.099 299.89 522.291 299.698C522.483 299.506 522.728 299.41 523.027 299.41ZM530.678 303.266C531.638 303.266 532.401 303.655 532.966 304.434C533.532 305.202 533.814 306.279 533.814 307.666C533.814 308.541 533.681 309.314 533.414 309.986C533.148 310.647 532.764 311.165 532.262 311.538C531.761 311.901 531.174 312.082 530.502 312.082C529.617 312.082 528.87 311.709 528.262 310.962L528.118 311.89H526.822V300.066L528.294 299.89V304.514C528.902 303.682 529.697 303.266 530.678 303.266ZM530.15 310.914C530.801 310.914 531.308 310.653 531.67 310.13C532.044 309.597 532.23 308.775 532.23 307.666C532.23 306.525 532.06 305.703 531.718 305.202C531.377 304.69 530.892 304.434 530.262 304.434C529.516 304.434 528.86 304.871 528.294 305.746V309.778C528.518 310.13 528.79 310.407 529.11 310.61C529.441 310.813 529.788 310.914 530.15 310.914ZM542.594 311.89H541.33L541.218 310.578C540.898 311.101 540.53 311.485 540.114 311.73C539.698 311.965 539.192 312.082 538.594 312.082C537.858 312.082 537.282 311.858 536.866 311.41C536.45 310.962 536.242 310.327 536.242 309.506V303.458H537.714V309.346C537.714 309.922 537.816 310.333 538.018 310.578C538.221 310.813 538.552 310.93 539.01 310.93C539.832 310.93 540.536 310.445 541.122 309.474V303.458H542.594V311.89ZM546.019 309.858C546.339 309.858 546.605 309.965 546.819 310.178C547.032 310.391 547.139 310.653 547.139 310.962C547.139 311.293 547.043 311.671 546.851 312.098L545.779 314.546H544.723L545.363 311.89C545.224 311.783 545.112 311.65 545.027 311.49C544.952 311.33 544.915 311.154 544.915 310.962C544.915 310.653 545.021 310.391 545.235 310.178C545.448 309.965 545.709 309.858 546.019 309.858ZM557.649 300.674C558.31 300.674 558.865 300.759 559.313 300.93C559.772 301.101 560.236 301.378 560.705 301.762L559.873 302.738C559.201 302.194 558.492 301.922 557.745 301.922C556.828 301.922 556.086 302.274 555.521 302.978C554.966 303.682 554.689 304.813 554.689 306.37C554.689 307.885 554.966 309.005 555.521 309.73C556.076 310.445 556.812 310.802 557.729 310.802C558.198 310.802 558.609 310.722 558.961 310.562C559.313 310.402 559.686 310.178 560.081 309.89L560.833 310.85C560.492 311.202 560.054 311.495 559.521 311.73C558.988 311.965 558.374 312.082 557.681 312.082C556.785 312.082 555.985 311.863 555.281 311.426C554.588 310.978 554.044 310.327 553.649 309.474C553.265 308.61 553.073 307.575 553.073 306.37C553.073 305.165 553.276 304.135 553.681 303.282C554.086 302.418 554.636 301.767 555.329 301.33C556.022 300.893 556.796 300.674 557.649 300.674ZM568.618 311.89L567.786 309.122H563.61L562.778 311.89H561.242L564.778 300.866H566.698L570.218 311.89H568.618ZM563.978 307.89H567.418L565.706 302.13L563.978 307.89Z" fill="white"/>
<path d="M615.297 67.8801C615.959 67.8801 616.513 67.9654 616.961 68.1361C617.42 68.3067 617.884 68.5841 618.353 68.9681L617.521 69.9441C616.849 69.4001 616.14 69.1281 615.393 69.1281C614.476 69.1281 613.735 69.4801 613.169 70.1841C612.615 70.8881 612.337 72.0187 612.337 73.5761C612.337 75.0907 612.615 76.2107 613.169 76.9361C613.724 77.6507 614.46 78.0081 615.377 78.0081C615.847 78.0081 616.257 77.9281 616.609 77.7681C616.961 77.6081 617.335 77.3841 617.729 77.0961L618.481 78.0561C618.14 78.4081 617.703 78.7014 617.169 78.9361C616.636 79.1707 616.023 79.2881 615.329 79.2881C614.433 79.2881 613.633 79.0694 612.929 78.6321C612.236 78.1841 611.692 77.5334 611.297 76.6801C610.913 75.8161 610.721 74.7814 610.721 73.5761C610.721 72.3707 610.924 71.3414 611.329 70.4881C611.735 69.6241 612.284 68.9734 612.977 68.5361C613.671 68.0987 614.444 67.8801 615.297 67.8801ZM626.321 79.0961H625.057L624.945 77.7841C624.625 78.3067 624.257 78.6907 623.841 78.9361C623.425 79.1707 622.918 79.2881 622.321 79.2881C621.585 79.2881 621.009 79.0641 620.593 78.6161C620.177 78.1681 619.969 77.5334 619.969 76.7121V70.6641H621.441V76.5521C621.441 77.1281 621.542 77.5387 621.745 77.7841C621.948 78.0187 622.278 78.1361 622.737 78.1361C623.558 78.1361 624.262 77.6507 624.849 76.6801V70.6641H626.321V79.0961ZM633.025 70.4721C633.324 70.4721 633.601 70.5041 633.857 70.5681L633.585 72.0081C633.329 71.9441 633.084 71.9121 632.849 71.9121C632.327 71.9121 631.905 72.1041 631.585 72.4881C631.265 72.8721 631.015 73.4694 630.833 74.2801V79.0961H629.361V70.6641H630.625L630.769 72.3761C630.993 71.7467 631.297 71.2721 631.681 70.9521C632.065 70.6321 632.513 70.4721 633.025 70.4721ZM639.197 70.4721C639.496 70.4721 639.773 70.5041 640.029 70.5681L639.757 72.0081C639.501 71.9441 639.256 71.9121 639.021 71.9121C638.499 71.9121 638.077 72.1041 637.757 72.4881C637.437 72.8721 637.187 73.4694 637.005 74.2801V79.0961H635.533V70.6641H636.797L636.941 72.3761C637.165 71.7467 637.469 71.2721 637.853 70.9521C638.237 70.6321 638.685 70.4721 639.197 70.4721ZM647.589 74.6321C647.589 74.8774 647.578 75.1281 647.557 75.3841H642.181C642.245 76.3121 642.479 76.9947 642.885 77.4321C643.29 77.8694 643.813 78.0881 644.453 78.0881C644.858 78.0881 645.231 78.0294 645.573 77.9121C645.914 77.7947 646.271 77.6081 646.645 77.3521L647.285 78.2321C646.389 78.9361 645.407 79.2881 644.341 79.2881C643.167 79.2881 642.25 78.9041 641.589 78.1361C640.938 77.3681 640.613 76.3121 640.613 74.9681C640.613 74.0934 640.751 73.3201 641.029 72.6481C641.317 71.9654 641.722 71.4321 642.245 71.0481C642.778 70.6641 643.402 70.4721 644.117 70.4721C645.237 70.4721 646.095 70.8401 646.693 71.5761C647.29 72.3121 647.589 73.3307 647.589 74.6321ZM646.133 74.2001C646.133 73.3681 645.967 72.7334 645.637 72.2961C645.306 71.8587 644.81 71.6401 644.149 71.6401C642.943 71.6401 642.287 72.5254 642.181 74.2961H646.133V74.2001ZM653.908 70.4721C654.676 70.4721 655.273 70.7014 655.7 71.1601C656.137 71.6187 656.356 72.2481 656.356 73.0481V79.0961H654.884V73.2561C654.884 72.6587 654.772 72.2374 654.548 71.9921C654.324 71.7467 653.993 71.6241 653.556 71.6241C653.108 71.6241 652.713 71.7521 652.372 72.0081C652.03 72.2641 651.71 72.6321 651.412 73.1121V79.0961H649.94V70.6641H651.204L651.332 71.9121C651.63 71.4641 651.998 71.1121 652.436 70.8561C652.884 70.6001 653.374 70.4721 653.908 70.4721ZM663.571 78.7121C663.016 79.0961 662.387 79.2881 661.683 79.2881C660.968 79.2881 660.408 79.0854 660.003 78.6801C659.608 78.2641 659.411 77.6667 659.411 76.8881V71.8001H657.939V70.6641H659.411V68.7601L660.883 68.5841V70.6641H662.883L662.723 71.8001H660.883V76.8241C660.883 77.2614 660.957 77.5814 661.107 77.7841C661.267 77.9761 661.528 78.0721 661.891 78.0721C662.221 78.0721 662.595 77.9601 663.011 77.7361L663.571 78.7121ZM670.93 68.0721V77.7681H675.458L675.282 79.0961H669.41V68.0721H670.93ZM680.061 70.4721C681.245 70.4721 682.162 70.8667 682.813 71.6561C683.474 72.4454 683.805 73.5174 683.805 74.8721C683.805 75.7467 683.655 76.5201 683.357 77.1921C683.058 77.8534 682.626 78.3707 682.061 78.7441C681.495 79.1067 680.823 79.2881 680.045 79.2881C678.861 79.2881 677.938 78.8934 677.277 78.1041C676.615 77.3147 676.285 76.2427 676.285 74.8881C676.285 74.0134 676.434 73.2454 676.733 72.5841C677.031 71.9121 677.463 71.3947 678.029 71.0321C678.594 70.6587 679.271 70.4721 680.061 70.4721ZM680.061 71.6561C678.599 71.6561 677.869 72.7334 677.869 74.8881C677.869 77.0321 678.594 78.1041 680.045 78.1041C681.495 78.1041 682.221 77.0267 682.221 74.8721C682.221 72.7281 681.501 71.6561 680.061 71.6561ZM689.308 70.4721C689.81 70.4721 690.268 70.5467 690.684 70.6961C691.1 70.8347 691.5 71.0641 691.884 71.3841L691.18 72.3121C690.882 72.0987 690.588 71.9441 690.3 71.8481C690.023 71.7414 689.714 71.6881 689.372 71.6881C688.69 71.6881 688.156 71.9601 687.772 72.5041C687.399 73.0481 687.212 73.8534 687.212 74.9201C687.212 75.9867 687.399 76.7761 687.772 77.2881C688.146 77.7894 688.679 78.0401 689.372 78.0401C689.703 78.0401 690.007 77.9921 690.284 77.8961C690.562 77.7894 690.871 77.6241 691.212 77.4001L691.884 78.3601C691.116 78.9787 690.258 79.2881 689.308 79.2881C688.167 79.2881 687.266 78.9041 686.604 78.1361C685.954 77.3681 685.628 76.3067 685.628 74.9521C685.628 74.0561 685.778 73.2721 686.076 72.6001C686.375 71.9281 686.796 71.4054 687.34 71.0321C687.895 70.6587 688.551 70.4721 689.308 70.4721ZM699.401 77.1281C699.401 77.4694 699.459 77.7254 699.577 77.8961C699.694 78.0561 699.87 78.1787 700.105 78.2641L699.769 79.2881C699.331 79.2347 698.979 79.1121 698.713 78.9201C698.446 78.7281 698.249 78.4294 698.121 78.0241C697.555 78.8667 696.718 79.2881 695.609 79.2881C694.777 79.2881 694.121 79.0534 693.641 78.5841C693.161 78.1147 692.921 77.5014 692.921 76.7441C692.921 75.8481 693.241 75.1601 693.881 74.6801C694.531 74.2001 695.449 73.9601 696.633 73.9601H697.929V73.3361C697.929 72.7387 697.785 72.3121 697.497 72.0561C697.209 71.8001 696.766 71.6721 696.169 71.6721C695.55 71.6721 694.793 71.8214 693.897 72.1201L693.529 71.0481C694.574 70.6641 695.545 70.4721 696.441 70.4721C697.433 70.4721 698.174 70.7174 698.665 71.2081C699.155 71.6881 699.401 72.3761 699.401 73.2721V77.1281ZM695.945 78.1841C696.787 78.1841 697.449 77.7467 697.929 76.8721V74.9361H696.825C695.267 74.9361 694.489 75.5121 694.489 76.6641C694.489 77.1654 694.611 77.5441 694.857 77.8001C695.102 78.0561 695.465 78.1841 695.945 78.1841ZM706.68 78.7121C706.125 79.0961 705.496 79.2881 704.792 79.2881C704.077 79.2881 703.517 79.0854 703.112 78.6801C702.717 78.2641 702.52 77.6667 702.52 76.8881V71.8001H701.048V70.6641H702.52V68.7601L703.992 68.5841V70.6641H705.992L705.832 71.8001H703.992V76.8241C703.992 77.2614 704.067 77.5814 704.216 77.7841C704.376 77.9761 704.637 78.0721 705 78.0721C705.331 78.0721 705.704 77.9601 706.12 77.7361L706.68 78.7121ZM709.677 70.6641V79.0961H708.205V70.6641H709.677ZM708.925 66.6161C709.234 66.6161 709.485 66.7121 709.677 66.9041C709.869 67.0961 709.965 67.3361 709.965 67.6241C709.965 67.9121 709.869 68.1521 709.677 68.3441C709.485 68.5254 709.234 68.6161 708.925 68.6161C708.626 68.6161 708.381 68.5254 708.189 68.3441C707.997 68.1521 707.901 67.9121 707.901 67.6241C707.901 67.3361 707.997 67.0961 708.189 66.9041C708.381 66.7121 708.626 66.6161 708.925 66.6161ZM715.889 70.4721C717.073 70.4721 717.99 70.8667 718.641 71.6561C719.302 72.4454 719.633 73.5174 719.633 74.8721C719.633 75.7467 719.483 76.5201 719.185 77.1921C718.886 77.8534 718.454 78.3707 717.889 78.7441C717.323 79.1067 716.651 79.2881 715.873 79.2881C714.689 79.2881 713.766 78.8934 713.105 78.1041C712.443 77.3147 712.113 76.2427 712.113 74.8881C712.113 74.0134 712.262 73.2454 712.561 72.5841C712.859 71.9121 713.291 71.3947 713.857 71.0321C714.422 70.6587 715.099 70.4721 715.889 70.4721ZM715.889 71.6561C714.427 71.6561 713.697 72.7334 713.697 74.8881C713.697 77.0321 714.422 78.1041 715.873 78.1041C717.323 78.1041 718.049 77.0267 718.049 74.8721C718.049 72.7281 717.329 71.6561 715.889 71.6561ZM726.033 70.4721C726.801 70.4721 727.398 70.7014 727.825 71.1601C728.262 71.6187 728.481 72.2481 728.481 73.0481V79.0961H727.009V73.2561C727.009 72.6587 726.897 72.2374 726.673 71.9921C726.449 71.7467 726.118 71.6241 725.681 71.6241C725.233 71.6241 724.838 71.7521 724.497 72.0081C724.155 72.2641 723.835 72.6321 723.537 73.1121V79.0961H722.065V70.6641H723.329L723.457 71.9121C723.755 71.4641 724.123 71.1121 724.561 70.8561C725.009 70.6001 725.499 70.4721 726.033 70.4721Z" fill="white"/>
</svg>
